<?xml version="1.0" encoding="utf-8"?>
<!-- Generator: Adobe Illustrator 22.0.1, SVG Export Plug-In . SVG Version: 6.00 Build 0)  -->
<svg version="1.1" id="Layer_1" xmlns="http://www.w3.org/2000/svg" xmlns:xlink="http://www.w3.org/1999/xlink" x="0px" y="0px"
	 viewBox="0 0 238 39" style="enable-background:new 0 0 238 39;" xml:space="preserve">
<style type="text/css">
	.st0{fill:#444444;}
</style>
<title>social-dark</title>
<path class="st0" d="M83.3,9.3c0,1.2-1,2.3-2.3,2.3c-1.2,0-2.3-1-2.3-2.3c0-1.2,1-2.3,2.2-2.3C82.2,7.1,83.3,8.1,83.3,9.3
	C83.3,9.3,83.3,9.3,83.3,9.3z M90.4,19.5l-0.1,8.2c-0.1,6.1-5,11.1-11.2,11.2L71,39l-8.2-0.1c-6.2,0-11.2-5-11.2-11.2l-0.1-8.2
	l0.1-8.2c0.1-6.1,5-11.1,11.2-11.2L71,0l8.2,0.1c6.1,0.1,11,5,11.1,11.1L90.4,19.5z M86.8,19.5l-0.1-8.1c0-4.2-3.4-7.5-7.6-7.6
	L71,3.6l-8.2,0.1c-4.2,0-7.5,3.4-7.6,7.6l-0.1,8.1l0.1,8.1c0,4.2,3.4,7.5,7.6,7.6l8.2,0.1l8.2-0.1c4.2,0,7.5-3.4,7.6-7.6L86.8,19.5z
	 M81,19.5c0,5.5-4.5,10-10,10s-10-4.5-10-10s4.5-10,10-10S81,14,81,19.5z M77.3,19.5c0-3.5-2.9-6.4-6.4-6.4s-6.4,2.9-6.4,6.4
	s2.9,6.4,6.4,6.4c0,0,0,0,0,0C74.5,25.9,77.4,23,77.3,19.5L77.3,19.5z"/>
<path id="Layer_1-2" class="st0" d="M19.8,0C8.7,0.1-0.1,9.2,0,20.2c0.1,8.4,5.5,15.9,13.5,18.7c0.5,0.2,1.1,0,1.3-0.6
	c0-0.1,0.1-0.2,0.1-0.3v-3.5c-5.5,1.2-6.7-2.7-6.7-2.7c-0.4-1.2-1.2-2.2-2.2-2.9c-1.8-1.2,0.1-1.2,0.1-1.2c1.3,0.2,2.4,1,3.1,2.1
	c1.1,2,3.6,2.8,5.6,1.7c0,0,0,0,0,0l0.1-0.1c0.1-1,0.5-1.9,1.3-2.7C11.7,28.2,7,26.5,7,18.9c0-2,0.7-3.9,2.1-5.3
	C8.5,11.9,8.6,10,9.3,8.3c0,0,1.7-0.6,5.4,2.1c3.3-0.9,6.7-0.9,10,0c3.8-2.6,5.5-2.1,5.5-2.1c0.7,1.7,0.8,3.5,0.2,5.2
	c1.3,1.4,2.1,3.3,2.1,5.3c0,7.7-4.7,9.3-9.1,9.8c1,1,1.5,2.4,1.4,3.7v5.5c0,0.6,0.5,1,1,1c0.1,0,0.2,0,0.4-0.1
	c10.4-3.5,16.1-14.8,12.6-25.2C36,5.5,28.4,0,19.8,0z"/>
<g id="Layer_1-2-2">
	<path id="twitter" class="st0" d="M144.2,6.8c-1.7,0.7-3.4,1.2-5.2,1.4c1.9-1.2,3.3-3,4-5.1c-1.8,1.1-3.7,1.8-5.8,2.2
		c-1.7-1.9-4.1-2.9-6.7-2.9c-5.1,0-9.1,4.2-9.1,9.2c0,0.7,0.1,1.4,0.2,2.1c-7.3-0.4-14.2-3.9-18.8-9.6c-0.8,1.4-1.3,3-1.3,4.6
		c0,3.1,1.5,6,4,7.7c-1.5-0.1-2.9-0.5-4.1-1.2v0.1c0,4.3,3.1,8.1,7.3,9c-0.8,0.2-1.6,0.3-2.4,0.3c-0.6,0-1.2-0.1-1.8-0.2
		c1.2,3.8,4.6,6.4,8.6,6.5c-3.2,2.6-7.2,4-11.3,4c-0.7,0-1.4-0.1-2.1-0.2c4.2,2.7,9,4.1,14,4.1c16.7,0,26-14,26-26.3v-1.2
		C141.5,10.3,143,8.7,144.2,6.8L144.2,6.8z"/>
</g>
<g id="black">
	<path id="linkedin" class="st0" d="M160.5,38.1V14.4h-7.3v23.8H160.5z M160.5,6c0-2.1-1.7-3.8-3.8-3.8s-3.8,1.7-3.8,3.8
		c-0.1,2,1.5,3.7,3.5,3.7c0.1,0,0.2,0,0.3,0c2,0.1,3.7-1.4,3.8-3.4C160.5,6.2,160.5,6.1,160.5,6L160.5,6z M172.5,38.1V24.6
		c0-0.7,0.1-1.4,0.3-2c0.6-1.8,2.3-2.9,4.1-3c2.9,0,4.7,1.6,4.7,4.9v13.6h7.4V24.2c0-7.4-4-10.9-9.3-10.9c-3-0.1-5.8,1.5-7.3,4.1
		l0.1-3.2h-7.4c0.1,2.3,0,23.9,0,23.9L172.5,38.1z"/>
</g>
</svg>
