<svg class="accelerate-digi-svg" xmlns="http://www.w3.org/2000/svg" viewBox="0 0 393.87 401.63"><title>accelerate-digital</title><path d="M219.22,251.56h-44.6l-13.05,15.07,32.51,37.55a3.77,3.77,0,0,0,2.84,1.3h0a3.77,3.77,0,0,0,2.85-1.3l32.51-37.55Zm-38.64,6h11.76l-.6.69-5.29,6.11-4.07-4.7Zm20.93,0h11.77l-5.88,6.79Zm-5.19,0h1.23l6.57,7.59H189.74Zm-13.13,7.59H170.8L177,258Zm22.17,3-8.42,27-8.42-27ZM216.87,258l6.19,7.15H210.67Zm-31.5,10.15,8.2,26.28-22.75-26.28Zm23.13,0h14.56l-22.77,26.28Z" transform="translate(0.02 0)"></path><path d="M154.75,245.21A13.27,13.27,0,0,0,165.29,240a13.25,13.25,0,0,0,21.09,0,13.25,13.25,0,0,0,21.09,0,13.25,13.25,0,0,0,21.09,0,13.29,13.29,0,1,0,14.85-20.65,13.25,13.25,0,0,0-7-19.5,13.25,13.25,0,0,0-7-19.5,13.25,13.25,0,0,0-7-19.5,13.25,13.25,0,0,0-7-19.5,13.25,13.25,0,0,0-7-19.5,13.3,13.3,0,1,0-22.67,0,13.25,13.25,0,0,0-7,19.5,13.25,13.25,0,0,0-7,19.5,13.25,13.25,0,0,0-7,19.5,13.25,13.25,0,0,0-7,19.5,13.25,13.25,0,0,0-7,19.5,13.29,13.29,0,0,0,4.31,25.88Zm0-20.6h.44l2.2-6.4a7.29,7.29,0,0,1,4.39-13.12h.12l2.26-6.58a7.29,7.29,0,0,1,4.43-12.88l2.34-6.81a7.29,7.29,0,0,1,4.36-12.67l2.42-7A7.29,7.29,0,0,1,182,146.63l2.52-7.35a7.28,7.28,0,0,1,4.16-12.1l2.63-7.66a7.31,7.31,0,1,1,11.06.22l2.46,7.38A7.29,7.29,0,0,1,209,139.71l2.3,6.93a7.29,7.29,0,0,1,4.33,13l2.18,6.55H218a7.3,7.3,0,0,1,4.17,13.29l2.07,6.16a7.29,7.29,0,0,1,4.5,13.53l2,6a7.29,7.29,0,0,1,4.56,13.7l2,5.9a7.3,7.3,0,1,1-5.21,9.07h-7a7.29,7.29,0,0,1-14,0H204a7.29,7.29,0,0,1-14,0h-7a7.29,7.29,0,0,1-14,0h-7.15a7.3,7.3,0,1,1-7-9.3Z" transform="translate(0.02 0)"></path><path d="M44.63,370.84A27.79,27.79,0,0,0,17,395.63h3a24.75,24.75,0,0,1,49.13,0h3A27.79,27.79,0,0,0,44.63,370.84Z" transform="translate(0.02 0)"></path><path d="M44.63,379.41a19.2,19.2,0,0,0-18.92,16.22h6.1a13.17,13.17,0,0,1,25.65,0h6.1A19.2,19.2,0,0,0,44.63,379.41Z" transform="translate(0.02 0)"></path><path d="M109.42,322.1c.91-1.76,1.68-3.63,2.45-5.48,2.33-5.64,4.73-11.47,10.93-14.94l6-3.37-6.57-2.1c-20.87-6.68-36.79-3.57-47.39,9.22-4.18-10-11.38-13.28-11.7-13.43l-1-.46-1.09.35c-.1,0-9.27,2.88-17.17.31l-2.12,5.61c8,2.7,16.6,1,19.82.17a21.69,21.69,0,0,1,8.32,11.18C73,318,73.79,334.29,60,362.3a39.09,39.09,0,0,0-9.64-2.68c.31-.54.63-1.11.94-1.72A37.21,37.21,0,0,0,54,350.57c.35-1.36.67-2.77.9-4.2s.44-2.89.6-4.34a94,94,0,0,0,.17-15.92c-.3-4.31-.76-7.14-.76-7.14s.08,2.87-.18,7.14a92.06,92.06,0,0,1-2.19,15.41c-.33,1.36-.69,2.71-1.11,4s-.86,2.56-1.34,3.75a32.53,32.53,0,0,1-3.17,6.07,20.74,20.74,0,0,1-1.6,2.09,9.28,9.28,0,0,1-.64.71,9.3,9.3,0,0,1-.64-.71,20.6,20.6,0,0,1-1.6-2.09,32.56,32.56,0,0,1-3.17-6.07c-.48-1.19-.94-2.44-1.34-3.75s-.77-2.65-1.11-4a92.11,92.11,0,0,1-2.19-15.41c-.27-4.27-.18-7.14-.18-7.14s-.46,2.83-.76,7.14A94,94,0,0,0,33.83,342c.16,1.45.35,2.91.6,4.34s.55,2.84.9,4.2A37.15,37.15,0,0,0,38,357.9c.31.61.63,1.18.94,1.72a39.07,39.07,0,0,0-8.14,2.09l-1.63-3.14a131.21,131.21,0,0,1-5.86-12.14l-3,8c1.11,2.27,2.34,4.63,3.55,7l1.51,2.89a39.7,39.7,0,0,0-13.5,12.48L6.2,391.81a2.83,2.83,0,0,0,2.64,3.82h2.54a33.39,33.39,0,0,1,60.69-16h0a33.19,33.19,0,0,1,5.84,16h6a39.11,39.11,0,0,0-3-12.27,17.77,17.77,0,0,0,1.86-.19c1-.14,2-.33,3-.56a31.83,31.83,0,0,0,3.08-.87c1-.35,2-.73,3.06-1.1,2-.82,3.94-1.75,5.71-2.68s3.37-1.88,4.71-2.72c1.12-.69,2-1.3,2.78-1.79l.16-.45c-.84.36-2,.86-3.36,1.4s-3.18,1.21-5,1.81a58,58,0,0,1-5.85,1.56c-1,.18-2,.4-3,.51s-2,.22-2.87.28-1.81,0-2.65,0a21.09,21.09,0,0,1-2.3-.22l-1-.15c-.3-.06-.58-.14-.85-.2.07-.3.15-.62.27-1a21.4,21.4,0,0,1,.91-2.44,30.44,30.44,0,0,1,1.43-2.83,27.43,27.43,0,0,1,2-3c.77-1,1.55-2.08,2.43-3.11s1.81-2,2.77-3a90.25,90.25,0,0,1,11.73-10c3.44-2.48,5.88-3.93,5.88-3.93s-2.61,1.11-6.38,3.13a92.13,92.13,0,0,0-13.24,8.56c-1.13.9-2.26,1.83-3.32,2.8s-2.09,2-3,3-1.83,2-2.62,3.08a35.43,35.43,0,0,0-2.09,3l-.49.85a39.73,39.73,0,0,0-7.76-7c18.32-29,32.65-36.62,41.53-37.86a16.75,16.75,0,0,1,11.77,2.44l2-5.77A22.85,22.85,0,0,0,109.42,322.1ZM78.7,340.34a120.56,120.56,0,0,1,5.61-13.79,72.6,72.6,0,0,1,4.42-7.86c.39-.6.78-1.19,1.19-1.75s.8-1.11,1.21-1.63.81-1,1.22-1.49.81-.92,1.21-1.33.78-.82,1.17-1.17.74-.71,1.11-1,.7-.59,1-.83l.92-.65A15.29,15.29,0,0,1,99.1,308l.48-.28-.51.22a15.4,15.4,0,0,0-1.44.67l-1,.54c-.36.21-.73.46-1.14.72s-.82.56-1.26.88l-1.34,1a15.05,15.05,0,0,0-1.4,1.22c-.46.45-1,.88-1.43,1.37s-1,1-1.44,1.52-1,1.08-1.44,1.65a75,75,0,0,0-5.5,7.51c-2,3-3.71,6.12-5.24,9q2.39-12,.54-21.54l.47-.66c3.08-4.49,12-17.53,37.22-11.59-4.34,4.26-6.52,9.55-8.36,14-1.94,4.7-3.5,8.48-6.71,10.19q-10.26,4.37-20.91,15.91Z" transform="translate(0.02 0)"></path><path d="M105.11,280.7c-3.22,0-3.22,5,0,5S108.33,280.7,105.11,280.7Z" transform="translate(0.02 0)"></path><path d="M87.78,278.81c-3.22,0-3.22,5,0,5S91,278.81,87.78,278.81Z" transform="translate(0.02 0)"></path><path d="M121.32,278.81c-3.22,0-3.22,5,0,5S124.55,278.81,121.32,278.81Z" transform="translate(0.02 0)"></path><path d="M98.11,176.86c3.22,0,3.22-5,0-5S94.89,176.86,98.11,176.86Z" transform="translate(0.02 0)"></path><path d="M84.78,206.82c-3.22,0-3.22,5,0,5S88,206.82,84.78,206.82Z" transform="translate(0.02 0)"></path><path d="M135.8,269.46c-3.22,0-3.22,5,0,5S139,269.46,135.8,269.46Z" transform="translate(0.02 0)"></path><path d="M145.27,259c3.22,0,3.22-5,0-5S142.05,259,145.27,259Z" transform="translate(0.02 0)"></path><path d="M96,205.51a10.55,10.55,0,0,0,8.47-19.33c-6.34-2.78-21.36-1.6-23.06-1.46l-5.51.47,3.39,4.36C80.37,190.9,89.69,202.74,96,205.51Zm6.06-13.88A4.55,4.55,0,0,1,98.44,200h0c-2.67-1.17-7-5.54-10.62-9.62C93.25,190.26,99.43,190.51,102.09,191.63Z" transform="translate(0.02 0)"></path><path d="M154.78,276.17a11.48,11.48,0,0,0-9.7,20.8h0c4.29,2,12.31,2.42,18.28,2.42,3.72,0,6.65-.16,7.37-.21l5.52-.34L173,294.4C171.83,292.88,161.74,279.41,154.78,276.17Zm-7.16,15.36h0a5.47,5.47,0,1,1,4.63-9.92h0c3.36,1.57,8.54,7.25,12.27,11.77-5.87,0-13.56-.28-16.9-1.85Z" transform="translate(0.02 0)"></path><path d="M164,137.41a10.48,10.48,0,0,0,6.57-4.69c3.67-5.87,4.68-20.91,4.79-22.6l.34-5.52-4.81,2.72c-1.48.84-14.54,8.34-18.21,14.21A10.55,10.55,0,0,0,164,137.41Zm-6.24-12.69c1.54-2.47,6.5-6.16,11.06-9.11-.65,5.39-1.79,11.46-3.34,13.93h0a4.55,4.55,0,1,1-7.72-4.82Z" transform="translate(0.02 0)"></path><path d="M135.24,105.3l2-1.09-.53-2.25c-.17-.73-4.28-17.9-10.5-25.83l-1,.79-2,5.42c3.43,5.85,6.07,14.81,7.17,18.88a93.92,93.92,0,0,0-21.56,19.18l-9.61,25.43.38.18C112.87,117.54,135,105.42,135.24,105.3Z" transform="translate(0.02 0)"></path><path d="M74.67,279.53l3.52-2.21L75,274.63c-10.33-8.54-13.54-27.85-9.41-38.77l-.4-.15-6.87,18.16C59.44,262,62.61,270.23,68,276.2c-4.32,2-12,4.54-19.08,2.5l-2.13,5.63a25.76,25.76,0,0,0,7.66,1.13C65,285.5,74.17,279.84,74.67,279.53Z" transform="translate(0.02 0)"></path><path d="M57.59,274.82c3.22,0,3.22-5,0-5S54.37,274.82,57.59,274.82Z" transform="translate(0.02 0)"></path><path d="M123.17,100.82c3.22,0,3.22-5,0-5S120,100.82,123.17,100.82Z" transform="translate(0.02 0)"></path><path d="M290.11,285.7c3.22,0,3.22-5,0-5S286.89,285.7,290.11,285.7Z" transform="translate(0.02 0)"></path><path d="M307.44,283.81c3.22,0,3.22-5,0-5S304.22,283.81,307.44,283.81Z" transform="translate(0.02 0)"></path><path d="M297.11,176.86c3.22,0,3.22-5,0-5S293.89,176.86,297.11,176.86Z" transform="translate(0.02 0)"></path><path d="M310.44,206.82c-3.22,0-3.22,5,0,5S313.67,206.82,310.44,206.82Z" transform="translate(0.02 0)"></path><path d="M259.42,269.46c-3.22,0-3.22,5,0,5S262.65,269.46,259.42,269.46Z" transform="translate(0.02 0)"></path><path d="M250,259c3.22,0,3.22-5,0-5S246.72,259,250,259Z" transform="translate(0.02 0)"></path><path d="M290.72,186.18h0a10.55,10.55,0,0,0,8.47,19.33h0c6.34-2.78,15.66-14.62,16.71-16l3.39-4.36-5.51-.47C312.09,184.63,297.06,183.4,290.72,186.18ZM296.78,200a4.55,4.55,0,0,1-3.65-8.34h0c2.67-1.17,8.84-1.41,14.27-1.28-3.58,4.08-8,8.45-10.62,9.62Z" transform="translate(0.02 0)"></path><path d="M224.67,132.72a10.48,10.48,0,0,0,6.57,4.69,10.56,10.56,0,0,0,11.32-15.88c-3.67-5.87-16.74-13.37-18.21-14.21l-4.81-2.69.34,5.52C220,111.81,221,126.85,224.67,132.72Zm12.81-8a4.55,4.55,0,1,1-7.72,4.83h0c-1.54-2.47-2.68-8.54-3.34-13.94,4.54,2.94,9.54,6.63,11.06,9.1Z" transform="translate(0.02 0)"></path><path d="M257.9,104.18l2.08,1.11c.22.12,22.38,12.24,35.67,40.7h.09L286,119.89a93.62,93.62,0,0,0-21.1-18.65c1.16-4,3.86-12.65,7.16-18.62l-2.61-7c-6.16,8-10.77,25.52-11,26.26Z" transform="translate(0.02 0)"></path><path d="M320.23,274.63l-3.2,2.65,3.52,2.21c.5.31,9.69,6,20.21,6a26.07,26.07,0,0,0,6.83-.88l-2.12-5.66c-6.85,1.62-14.1-.84-18.26-2.72,5-5.65,8.11-13.33,9.36-21.08L329.4,236h0C333.64,247.17,330.61,266.09,320.23,274.63Z" transform="translate(0.02 0)"></path><path d="M337.63,274.82c3.22,0,3.22-5,0-5S334.41,274.82,337.63,274.82Z" transform="translate(0.02 0)"></path><path d="M272.05,100.82c3.22,0,3.22-5,0-5S268.82,100.82,272.05,100.82Z" transform="translate(0.02 0)"></path><path d="M349,370.84a27.79,27.79,0,0,0-27.6,24.79h3a24.75,24.75,0,0,1,49.13,0h3A27.79,27.79,0,0,0,349,370.84Z" transform="translate(0.02 0)"></path><path d="M349,379.41A19.2,19.2,0,0,0,330,395.63h6.1a13.17,13.17,0,0,1,25.65,0h6.1A19.2,19.2,0,0,0,349,379.41Z" transform="translate(0.02 0)"></path><path d="M284.87,328a27.12,27.12,0,0,1,6.32,1.82,13.74,13.74,0,0,0,1.37.64h0c8.75,4.1,20.37,13.9,34.13,35.65a39.72,39.72,0,0,0-7.76,7c-.16-.28-.31-.56-.49-.85a35.43,35.43,0,0,0-2.09-3c-.8-1-1.67-2.06-2.62-3.08s-2-2-3-3a37.74,37.74,0,0,0-3.32-2.8,92.13,92.13,0,0,0-13.24-8.56c-3.77-2-6.38-3.13-6.38-3.13s2.45,1.45,5.88,3.93a90.22,90.22,0,0,1,11.73,10c1,1,1.9,2,2.77,3s1.69,2.08,2.43,3.11,1.39,2.06,2,3a30.45,30.45,0,0,1,1.36,2.84,21.41,21.41,0,0,1,.91,2.44,7.42,7.42,0,0,1,.27,1c-.27.06-.55.15-.85.2l-1,.15a21.12,21.12,0,0,1-2.3.22h-2.65a19.21,19.21,0,0,1-2.87-.28c-1-.15-2-.33-3-.51-2-.43-4-1-5.85-1.56s-3.57-1.23-5-1.81-2.66-1.1-3.51-1.47l-1.32-.59,1.2.81c.76.51,1.86,1.25,3.21,2.08s3,1.78,4.71,2.72a61.76,61.76,0,0,0,5.71,2.68c1,.38,2,.8,3.06,1.1s2.06.62,3.08.87a29.74,29.74,0,0,0,3,.56c.65.07,1.26.14,1.86.19a39.11,39.11,0,0,0-3,12.2h6a33.19,33.19,0,0,1,5.84-16h0a33.39,33.39,0,0,1,60.69,16H385a2.83,2.83,0,0,0,2.65-3.81L382.47,378a39.69,39.69,0,0,0-14.28-13.69l1.5-2.88c1.3-2.49,2.62-5,3.8-7.45l-2.94-7.86-.14,0a123.48,123.48,0,0,1-6,12.58l-1.62,3.12a39,39,0,0,0-8.13-2.09c.32-.54.63-1.11.94-1.72a37.15,37.15,0,0,0,2.69-7.33c.35-1.36.67-2.77.9-4.2s.44-2.89.6-4.34a93.92,93.92,0,0,0,.17-15.92c-.3-4.31-.76-7.14-.76-7.14s.08,2.87-.18,7.14a92.11,92.11,0,0,1-2.19,15.41c-.34,1.36-.69,2.71-1.11,4s-.86,2.56-1.34,3.75a32.5,32.5,0,0,1-3.17,6.07,20.67,20.67,0,0,1-1.6,2.09,9.28,9.28,0,0,1-.64.71,9.3,9.3,0,0,1-.64-.71,20.74,20.74,0,0,1-1.6-2.09,32.53,32.53,0,0,1-3.17-6.07c-.48-1.19-.94-2.44-1.34-3.75s-.77-2.65-1.11-4a92.06,92.06,0,0,1-2.19-15.41c-.26-4.27-.18-7.14-.18-7.14s-.46,2.83-.76,7.14a94,94,0,0,0,.17,15.92c.16,1.45.35,2.91.6,4.34s.55,2.84.9,4.2a37.18,37.18,0,0,0,2.69,7.33c.31.61.63,1.18.94,1.72a39.08,39.08,0,0,0-9.64,2.69c-13.71-27.82-13-44.11-10-52.91,2.43-7,6.61-10.29,8.4-11.42,3.29.85,12.25,2.63,20.41-.37l-2.1-5.61c-8,2.93-17.67-.07-17.77-.1l-1.09-.35-1,.47c-.32.14-7.52,3.46-11.7,13.43-10.6-12.79-26.52-15.9-47.39-9.22l-6.57,2.1,6,3.37c6.2,3.47,8.6,9.3,10.93,14.94.73,1.77,1.47,3.56,2.33,5.26a23.46,23.46,0,0,0-14.27,3l2,5.88C272.37,330.32,277,326.8,284.87,328Zm-6-27.74c9.84-2.45,26.48-4.1,37.28,11.64l.47.66c-1.24,6.35-1,13.54.54,21.54-1.53-2.92-3.29-6-5.24-9a75,75,0,0,0-5.5-7.51c-.48-.57-1-1.12-1.44-1.65s-1-1-1.44-1.52-1-.94-1.43-1.37-.94-.84-1.4-1.22a12.23,12.23,0,0,0-1.34-1c-.44-.27-.84-.63-1.26-.88s-.78-.51-1.14-.72l-1-.54a15.46,15.46,0,0,0-1.44-.67l-.51-.22.48.28a15.29,15.29,0,0,1,1.34.83l.92.65c.33.25.66.54,1,.83s.73.64,1.11,1,.78.74,1.17,1.17.81.85,1.21,1.33l1.22,1.49c.4.49.82,1.06,1.21,1.63s.8,1.15,1.19,1.75a72.59,72.59,0,0,1,4.42,7.86,120.48,120.48,0,0,1,5.62,13.83q-10.77-11.67-21.26-16c-3-1.78-4.51-5.46-6.38-10s-4-9.92-8.42-14.19Z" transform="translate(0.02 0)"></path><path d="M272.26,283.81a2.5,2.5,0,0,1,1.63,0c3.22,0,3.22-5,0-5a2.5,2.5,0,0,1-1.63,0C269.05,278.81,269,283.81,272.26,283.81Z" transform="translate(0.02 0)"></path><path d="M238.81,276.17c-7,3.24-17,16.71-18.18,18.23l-3.29,4.44,5.52.34c.73,0,3.65.21,7.37.21,6,0,14-.42,18.27-2.42a11.48,11.48,0,0,0-9.7-20.8h0Zm10,12.27a5.44,5.44,0,0,1-2.85,3.09h0c-3.36,1.57-11,1.89-16.9,1.84,3.73-4.52,8.91-10.2,12.27-11.77a5.47,5.47,0,0,1,7.46,6.83Z" transform="translate(0.02 0)"></path><path d="M140.12,71.5c.69-.09,1.39-.22,2.08-.36-6.55,15.17-2,24.32-1.78,24.75l.73,1.42,1.58.19a26.92,26.92,0,0,0,2.93.14,37.28,37.28,0,0,0,17.76-4.41l-2,2.9c-.93,1.2-1.85,2.45-2.87,3.63a87.46,87.46,0,0,1-6.6,7.15,144.94,144.94,0,0,1-16.45,13.47c-3,2.22-6.16,4.5-9.26,7-1.5,1.24-3,2.52-4.46,3.9h0l-.64.58c-.43.38-1,1-1.83,1.75a36.6,36.6,0,0,0-5.85,7.72,34.46,34.46,0,0,0-2.76,6.39,38.41,38.41,0,0,0-1.56,8A58.53,58.53,0,0,0,111,174.46,157.63,157.63,0,0,0,117.79,195c2.77,7.07,5.94,14.37,8.66,22a94.07,94.07,0,0,1,3.4,11.62c.21,1,.39,2,.55,3l.2,1.43.08.8v.73a27.82,27.82,0,0,1-.16,5.82,28.64,28.64,0,0,1-3.92,11,29.76,29.76,0,0,1-8,8.7,24.22,24.22,0,0,1-10.76,4.4h-.67l-.73.07c-.49.06-1,0-1.46.06a11.69,11.69,0,0,1-1.45,0,13.06,13.06,0,0,1-1.44-.11,22.88,22.88,0,0,1-5.58-1.31,24.48,24.48,0,0,1-14.68-16.07,20.73,20.73,0,0,1-.36-10.47,19.34,19.34,0,0,1,4.61-8.8c4.37-4.77,11.19-6.47,16.32-4.72a12.58,12.58,0,0,1,6.58,3.76,12.09,12.09,0,0,1,2.88,6.5,13.52,13.52,0,0,1-.74,6.54,10.71,10.71,0,0,1-1.31,2.4c-4.85,5.71-13.47-.31-10.15-7,.9-1.81-5.76-3-7.39-.65s-.53,6.36,2.51,9.12h0l.32.27a12.33,12.33,0,0,0,2.78,1.79,11.39,11.39,0,0,0,10.71.31l.19-.09c3.86-1.89,7-6.86,7-12.91a16.57,16.57,0,0,0-2.79-9.31,17.21,17.21,0,0,0-8.82-6.62,13.82,13.82,0,0,0-1.4-.37c-.51-.11-1-.2-1.47-.26a24.58,24.58,0,0,0-3-.18,22.78,22.78,0,0,0-16.64,7.32A25.32,25.32,0,0,0,75.6,235.3,26.74,26.74,0,0,0,76,248.79a30.79,30.79,0,0,0,6.69,12,29.64,29.64,0,0,0,11.67,8,28.9,28.9,0,0,0,7,1.66,18.06,18.06,0,0,0,1.81.14c.6,0,1.21.06,1.81,0s1.21,0,1.81-.08l.9-.08h1a27.14,27.14,0,0,0,3.56-.73,28.76,28.76,0,0,0,3.46-1.19A33.18,33.18,0,0,0,122,265a35.75,35.75,0,0,0,9.69-10.47,34.63,34.63,0,0,0,4.74-13.37,33.85,33.85,0,0,0,.19-7.06v-.87l-.08-.8-.24-1.74c-.18-1.12-.38-2.22-.61-3.3A99.87,99.87,0,0,0,132.08,215c-1.44-4-3-7.85-4.47-11.58a32,32,0,0,0,12.3,2.33,30.63,30.63,0,0,0,4.71-.33l2.16-.36.32-2.16c.1-.68,1.94-14-4.59-22.55A23.65,23.65,0,0,0,158.58,166c.18-.5.4-1.08.53-1.51l.19-.65.12-.41.09-.38a23.88,23.88,0,0,0,.53-3,26.2,26.2,0,0,0,0-5.92,24.13,24.13,0,0,0-3.89-10.7,17,17,0,0,0-4-4.17,14.08,14.08,0,0,0-5.28-2.42c-.48-.1-.93-.18-1.43-.24l-.78-.06h-2c-.41,0-.81.06-1.22.1a28.2,28.2,0,0,0-4.73.93A15.63,15.63,0,0,0,125.85,150a11.63,11.63,0,0,0,1,6.6,9.82,9.82,0,0,0,3.37,4,10.46,10.46,0,0,0,1.14.65,9.34,9.34,0,0,0,4.39,1.17h1.38c8.72,0,12.34-7.47,9.49-11.61-1.63-2.38-8.29-1.16-7.39.65,3.36,6.76-5.34,11.9-9.37,5.86a7.48,7.48,0,0,1-.57-1.61,9.64,9.64,0,0,1,3.6-9.41,12,12,0,0,1,2.63-1.61c1-.41,2-.85,3-1.26a14.76,14.76,0,0,1,3.52-.76c.31,0,.63-.06,1-.08h1.69a4.64,4.64,0,0,1,.79.13,9.43,9.43,0,0,1,5.62,4.13,18.19,18.19,0,0,1,2.88,8,18.49,18.49,0,0,1-1.06,9,17.73,17.73,0,0,1-5.59,7.51,18,18,0,0,1-9,3.66,23.86,23.86,0,0,1-10.28-1.16,31.89,31.89,0,0,1-5-2.13l-.52-.27-.64-.38-.32-.19-.23-.16-.44-.31a12.89,12.89,0,0,1-1.8-1.61,15.38,15.38,0,0,1-3.83-9.13c-.68-7,2.1-14.55,6.65-19.88,4.86-5.75,11-10.12,17.12-14.6a150.75,150.75,0,0,0,17.09-14,103.76,103.76,0,0,0,12.88-15.32c1-1.63,1.84-3.23,2.66-4.81A24.15,24.15,0,0,0,183,99.93l1.56.56,1.31-1a18.42,18.42,0,0,1,21.59,0l1.44,1.12,1.66-.76A24.48,24.48,0,0,0,222.09,88.1c1.2,2.52,2.57,5.13,4.14,7.78a103.78,103.78,0,0,0,12.88,15.32,150.71,150.71,0,0,0,17.09,14c6.08,4.48,12.26,8.85,17.11,14.6,4.55,5.33,7.33,12.88,6.65,19.88a15.38,15.38,0,0,1-3.83,9.13,12.91,12.91,0,0,1-1.8,1.61l-.44.31-.23.16-.32.19-.64.38-.52.27a31.92,31.92,0,0,1-5,2.13A23.86,23.86,0,0,1,256.9,175a18,18,0,0,1-9-3.66,17.74,17.74,0,0,1-5.59-7.51,18.49,18.49,0,0,1-1.06-9,18.19,18.19,0,0,1,2.88-8,9.43,9.43,0,0,1,5.62-4.13c.26,0,.54-.1.79-.13h1.69a3.78,3.78,0,0,1,1,.08,14.76,14.76,0,0,1,3.52.76c1.08.41,2.07.85,3,1.26a12,12,0,0,1,2.63,1.61,9.64,9.64,0,0,1,3.58,9.33,7.45,7.45,0,0,1-.57,1.61c-4,6-12.73.9-9.37-5.86.9-1.81-5.76-3-7.39-.65-2.84,4.14.77,11.61,9.49,11.61h1.38a9.34,9.34,0,0,0,4.39-1.17,10.45,10.45,0,0,0,1.14-.65,9.82,9.82,0,0,0,3.37-4,11.63,11.63,0,0,0,1-6.6,15.63,15.63,0,0,0-10.85-12.36,28.19,28.19,0,0,0-4.73-.93c-.4,0-.81-.08-1.22-.1h-2l-.78.06a13.86,13.86,0,0,0-6.71,2.66,17,17,0,0,0-4,4.17,24.12,24.12,0,0,0-3.89,10.7,26.14,26.14,0,0,0,0,5.92,23.79,23.79,0,0,0,.53,3l.09.38.12.41.19.65c.13.44.35,1,.53,1.51a23.65,23.65,0,0,0,16.07,14.31c-6.53,8.51-4.69,21.87-4.59,22.55l.32,2.16,2.16.36a30.62,30.62,0,0,0,4.71.33,32,32,0,0,0,12.3-2.33c-1.51,3.73-3,7.58-4.47,11.58a99.93,99.93,0,0,0-3.64,12.39c-.23,1.08-.43,2.19-.61,3.3l-.24,1.74-.08.8V234a33.82,33.82,0,0,0,.19,7.06,34.65,34.65,0,0,0,4.74,13.37,35.75,35.75,0,0,0,9.69,10.47,33.18,33.18,0,0,0,6.32,3.53,28.79,28.79,0,0,0,3.46,1.19,27.18,27.18,0,0,0,3.56.73h1l.9.08c.6.07,1.21,0,1.81.08s1.21,0,1.81,0a18,18,0,0,0,1.81-.14,28.89,28.89,0,0,0,7-1.66,29.65,29.65,0,0,0,11.67-8,30.79,30.79,0,0,0,6.69-12,26.74,26.74,0,0,0,.43-13.49,25.32,25.32,0,0,0-6.06-11.52,22.78,22.78,0,0,0-16.64-7.32,24.57,24.57,0,0,0-3,.18,13.64,13.64,0,0,0-1.47.26,13.81,13.81,0,0,0-1.4.37,17.21,17.21,0,0,0-8.82,6.62,16.57,16.57,0,0,0-2.79,9.31c0,6,3.19,11,7,12.91l.19.09a11.39,11.39,0,0,0,10.71-.31,12.33,12.33,0,0,0,2.78-1.79l.32-.27h0c3-2.77,4.2-6.66,2.51-9.12s-8.29-1.16-7.39.65c3.32,6.67-5.31,12.69-10.15,7a10.75,10.75,0,0,1-1.31-2.4,13.51,13.51,0,0,1-.74-6.54,12.08,12.08,0,0,1,2.88-6.5,12.58,12.58,0,0,1,6.58-3.76c5.12-1.74,12,0,16.32,4.72a19.33,19.33,0,0,1,4.61,8.8,20.73,20.73,0,0,1-.36,10.47,24.48,24.48,0,0,1-14.68,16.07,22.89,22.89,0,0,1-5.58,1.31,13.06,13.06,0,0,1-1.44.11,14,14,0,0,1-1.45,0c-.45,0-1,0-1.46-.06l-.73-.07h-.67a24.22,24.22,0,0,1-10.76-4.4,29.76,29.76,0,0,1-8-8.7,28.64,28.64,0,0,1-3.92-11,27.82,27.82,0,0,1-.16-5.82v-.73l.08-.8.2-1.43c.16-1,.34-2,.55-3A94.15,94.15,0,0,1,268.81,217c2.73-7.61,5.89-14.91,8.67-22a157.7,157.7,0,0,0,6.83-20.55,58.53,58.53,0,0,0,1.78-18.77,38.41,38.41,0,0,0-1.56-8,34.5,34.5,0,0,0-2.76-6.39,36.6,36.6,0,0,0-5.85-7.72c-.78-.8-1.4-1.37-1.83-1.75l-.64-.58h0c-1.45-1.38-3-2.66-4.46-3.9-3.1-2.51-6.23-4.78-9.26-7a144.89,144.89,0,0,1-16.45-13.47,87.38,87.38,0,0,1-6.6-7.15c-1-1.19-1.94-2.44-2.87-3.63l-2.54-3.67L231,92a47.44,47.44,0,0,0,19.89,5h1.83l.84-1.62c.22-.43,4.67-9.4-1.59-24.29.6.12,1.19.23,1.79.3a23.69,23.69,0,0,0,3,.2A20.4,20.4,0,0,0,267,69.06l-2.14-5.72a14.53,14.53,0,0,1-10.55,2.18c-7.92-1.12-20.77-8-37.25-34.32a35.17,35.17,0,0,0,6.08-5.65c.22.39.45.78.7,1.19a33.33,33.33,0,0,0,4.38,5.49c.88.9,1.81,1.8,2.8,2.65s2,1.68,3,2.48a84,84,0,0,0,12.09,7.52c3.51,1.75,5.89,2.75,5.89,2.75s-2.21-1.3-5.32-3.53a82,82,0,0,1-10.6-9c-.87-.9-1.72-1.81-2.5-2.74s-1.52-1.86-2.19-2.79a28.69,28.69,0,0,1-3.06-5.25,18.21,18.21,0,0,1-.8-2.17,4.58,4.58,0,0,1-.15-.55,13.76,13.76,0,0,1,1.36-.26,19.88,19.88,0,0,1,2.08-.22h2.39a18.38,18.38,0,0,1,2.61.22l2.71.41c1.82.36,3.64.81,5.33,1.32s3.26,1.05,4.6,1.56c.88.33,1.65.64,2.3.91l-.27-.72c-.48-.32-1-.66-1.62-1-1.22-.77-2.68-1.62-4.29-2.48a57,57,0,0,0-5.2-2.44c-.93-.34-1.84-.73-2.79-1s-1.88-.57-2.8-.8-1.85-.39-2.73-.53a18.1,18.1,0,0,0-2.25-.22A34.62,34.62,0,0,0,231.28,6h-6a28.89,28.89,0,0,1-57.46,0h-6a34.61,34.61,0,0,0,2.53,10.36l-1.49.17c-.88.14-1.8.31-2.73.53s-1.87.48-2.8.8-1.86.67-2.79,1c-1.83.75-3.59,1.59-5.2,2.44-1.43.77-2.74,1.53-3.88,2.23l-.5,1.26.49-.19c1.33-.51,2.91-1,4.6-1.56a38.09,38.09,0,0,1,5.33-1.32c.91-.15,1.82-.33,2.71-.41s1.77-.17,2.61-.22,1.64,0,2.39,0a19.89,19.89,0,0,1,2.08.22,11.42,11.42,0,0,1,1.36.26,2.06,2.06,0,0,1-.15.55,18.11,18.11,0,0,1-.8,2.17,28.69,28.69,0,0,1-3.06,5.25c-.67.92-1.39,1.87-2.19,2.79s-1.63,1.84-2.5,2.74a82.07,82.07,0,0,1-10.6,9c-3.11,2.23-5.32,3.53-5.32,3.53s2.38-1,5.81-2.73a84,84,0,0,0,12.09-7.52c1-.8,2.07-1.62,3-2.48s1.92-1.75,2.8-2.65A33.33,33.33,0,0,0,170,26.77l.38-.65a35.14,35.14,0,0,0,6.16,5.5c-16.37,26-29.12,32.83-37,33.94a15.11,15.11,0,0,1-9.44-1.49L128,69.63a20.61,20.61,0,0,0,9.08,2A23.67,23.67,0,0,0,140.12,71.5ZM126.24,179.56a31.74,31.74,0,0,0,8.21,1.56c6.79,3.83,7.13,14,6.9,18.57-4.09.19-12.74-.26-17.92-6.65l-.09-.22c-1.55-3.93-3-7.74-4.17-11.43l.24.29c1,1.2,2.13,2.44,3.32,3.61.57.6,1.22,1.14,1.82,1.7s1.26,1,1.86,1.52l1.85,1.28,1.74,1,1.54.69a8.16,8.16,0,0,0,1.22.42l1.07.32-1-.5a7.88,7.88,0,0,1-1.11-.62l-1.36-.92-1.48-1.24-1.53-1.51c-.49-.57-1-1.13-1.5-1.74a20.36,20.36,0,0,1-1.43-1.89c-.92-1.29-1.77-2.62-2.51-3.91-.58-1-1.08-1.94-1.52-2.81A37.84,37.84,0,0,0,126.24,179.56Zm127.64,20.12c-.23-4.6.11-14.73,6.9-18.56a31.74,31.74,0,0,0,8.21-1.56,37.57,37.57,0,0,0,5.33-2.21c-.41.8-.87,1.67-1.4,2.56-.74,1.29-1.59,2.62-2.51,3.91-.44.66-1,1.26-1.43,1.89a19.09,19.09,0,0,1-1.5,1.74L266,189l-1.48,1.24-1.36.92a7.88,7.88,0,0,1-1.11.62l-1,.5,1.07-.32a8.16,8.16,0,0,0,1.22-.42l1.54-.69,1.74-1,1.85-1.28c.6-.49,1.24-1,1.86-1.52a24.12,24.12,0,0,0,1.82-1.7,48.06,48.06,0,0,0,3.32-3.61l.87-1c-1.26,3.93-2.77,8-4.43,12.19l-.09.22c-5.14,6.34-13.82,6.82-17.91,6.63Zm-44.47-106a24.34,24.34,0,0,0-25.75.08,19.24,19.24,0,0,1-9.35-10.41c-3-7.62-3.84-22.12,9-48a34.57,34.57,0,0,0,8,2.23c-.32.54-.63,1.11-.94,1.73A33.36,33.36,0,0,0,188,45.87c-.31,1.22-.58,2.49-.78,3.78s-.38,2.59-.51,3.9a84,84,0,0,0,0,14.24c.3,3.85.72,6.38.72,6.38s0-2.56.21-6.38A82,82,0,0,1,189.71,54c.31-1.21.63-2.41,1-3.57s.78-2.28,1.22-3.33a28.73,28.73,0,0,1,2.86-5.36A18.08,18.08,0,0,1,196.22,40a3.89,3.89,0,0,1,.34-.36l.34.36a18,18,0,0,1,1.43,1.82,28.7,28.7,0,0,1,2.86,5.36c.44,1.05.86,2.17,1.22,3.33s.71,2.36,1,3.57a82,82,0,0,1,2.07,13.74c.27,3.82.21,6.38.21,6.38s.43-2.53.73-6.38a84,84,0,0,0,0-14.24c-.13-1.3-.29-2.61-.51-3.9s-.48-2.55-.78-3.78a33.36,33.36,0,0,0-2.37-6.61c-.31-.62-.63-1.19-.94-1.73a34.56,34.56,0,0,0,6.67-1.69c12.41,25.29,11.89,39.71,9.2,47.39A19.28,19.28,0,0,1,209.41,93.63Zm34.44-25.31c6.47,11.54,5.76,19.37,4.94,22.66-4.81-.45-16.81-2.49-24.1-11.55,1.17-7.27.3-15.81-2.6-25.56,2,2.46,4.12,5.3,6.2,8.22.76,1,1.45,2.1,2.17,3.13s1.36,2.09,2,3.09l1.8,3L235.77,74c.46.84.82,1.64,1.17,2.34s.61,1.33.83,1.85l.68,1.63L238,78.12c-.14-.55-.3-1.22-.56-2s-.5-1.61-.83-2.52l-1.1-3-1.37-3.23c-.51-1.1-1-2.26-1.58-3.41s-1.12-2.33-1.73-3.48c-.68-1.33-1.38-2.65-2.08-3.94a57.64,57.64,0,0,0,15.09,11.74Zm-79.08-11.4c-.94,1.78-1.89,3.66-2.8,5.56l-1.48,3.21-1.34,3.15c-.4,1-.81,2-1.16,3l-1,2.7-.7,2.31c-.22.68-.34,1.3-.47,1.8l-.38,1.57.63-1.49c.21-.47.42-1,.74-1.69l1-2.15,1.34-2.48c.49-.87,1-1.77,1.59-2.71l1.79-2.84L164.52,64c1.12-1.62,2.28-3.21,3.41-4.71q-2.92,13-.37,22.73c-7.23,8.9-18.07,9.7-22.34,9.63-.83-3.22-1.74-11.48,5.22-23.55a58,58,0,0,0,14.33-11.18Z" transform="translate(0.02 0)"></path><path d="M196.53,28A25,25,0,0,0,221.29,6h-3a21.94,21.94,0,0,1-43.47,0h-3A25,25,0,0,0,196.53,28Z" transform="translate(0.02 0)"></path><path d="M196.53,20.63A17.65,17.65,0,0,0,213.89,6h-6.13A11.62,11.62,0,0,1,185.3,6h-6.13A17.65,17.65,0,0,0,196.53,20.63Z" transform="translate(0.02 0)"></path><path d="M393.29,389.63,328.76,217.11a35.67,35.67,0,0,1,5.82-35.4l3.47-4.23-5.34-.93A37,37,0,0,1,304.79,153L250,6.29A9.72,9.72,0,0,0,240.9,0H154.6a9.73,9.73,0,0,0-9,6.25L90.48,151.9a39,39,0,0,1-29.33,24.66l-5.43.94,3.54,4.21a36.94,36.94,0,0,1,6,36.8L.57,389.63a8.83,8.83,0,0,0,8.26,12H94.76a9.69,9.69,0,0,0,9.13-6.46L130.72,319a3.68,3.68,0,0,1,3.47-2.46H258a3.68,3.68,0,0,1,3.48,2.5l25.82,76a9.68,9.68,0,0,0,9.16,6.57H385a8.83,8.83,0,0,0,8.27-11.92ZM293,393.1l-21.15-62.29-2-5.88-2.67-7.86A9.68,9.68,0,0,0,258,310.5H134.18A9.69,9.69,0,0,0,125,317l-2.77,7.86-2,5.77L105.35,373l-.16.45-6.94,19.69a3.68,3.68,0,0,1-3.49,2.5H8.83a2.83,2.83,0,0,1-2.64-3.82l5.69-15.06,8.44-22.33,3-8L41.71,297.8l2.12-5.61,3-7.81L49,278.75l9.39-24.83,6.87-18.16,5.68-15.13a43.09,43.09,0,0,0-4.34-39.18A45.18,45.18,0,0,0,96.09,154l3.1-8.2,9.61-25.43,14.39-38.06,2-5.42L128,69.63,130.09,64,145,24.83l.48-1.28,5.74-15.17A3.7,3.7,0,0,1,154.62,6h86.25a3.69,3.69,0,0,1,3.44,2.39l6.15,16.44.27.72,14.13,37.79L267,69.06l2.46,6.57,2.61,7L286,119.89,295.71,146l3.43,9.16a43.19,43.19,0,0,0,28.13,26.33,41.84,41.84,0,0,0-4.16,37.77L329.38,236l7.17,19.18,8.9,23.8,2.12,5.66,2.75,7.37,2.1,5.61,18.12,48.45,2.94,7.86,9,24,5.18,13.85a2.83,2.83,0,0,1-2.65,3.81h-88.6A3.68,3.68,0,0,1,293,393.1Z" transform="translate(0.02 0)"></path><path d="M154.84,231.85a4.87,4.87,0,0,0,4,2.06h74.72a4.87,4.87,0,0,0,4.61-6.42l-.88-2.65-2-5.9-4.56-13.7-2-6-4.47-13.61-2.08-6.25-4.42-13.28-2.17-6.47-4.31-13L209,139.7l-4.17-12.53-2.46-7.38-1-2.85a4.81,4.81,0,0,0-4.58-3.29h0a4.82,4.82,0,0,0-4.6,3.27l-.91,2.65-2.63,7.66-4.16,12.1-2.56,7.3L177.69,159l-2.42,7L171,178.82l-2.37,6.81-4.44,12.91-2.26,6.58-4.51,13.12-2.2,6.4-1,2.8A4.87,4.87,0,0,0,154.84,231.85Zm8.43-12.29,4.08-11.86,2.61-7.58,4.19-12.18,2.5-7.27L181,168.2l2.4-7,4.38-12.73,2.32-6.75,1.19-3.47,5.51-16,.06-.16.06.17,2.25,6.77,4.23,12.7,2.39,7.19,4.07,12.23,2.57,7.71,3.88,11.66,2.69,8.31,3.65,11,3,9.1L229,219.08l3,8.86H160.4l.14-.42Z" transform="translate(0.02 0)"></path></svg>