<svg id="Layer_1" data-name="Layer 1" xmlns="http://www.w3.org/2000/svg" width="55.8" height="54.26" viewBox="0 0 55.8 54.26"><defs><style>.cls-1{fill:#fff}</style></defs><title>github</title><path class="cls-1" d="M50.1 23.7a27.82 27.82 0 0 0-8.8 54.2 1.37 1.37 0 0 0 1.9-1.3v-4.8c-7.7 1.7-9.3-3.8-9.3-3.8-1.3-3.2-3.1-4.1-3.1-4.1-2.5-1.7.2-1.7.2-1.7a6 6 0 0 1 4.3 2.9c2.5 4.3 6.6 3 8 2.3a6.12 6.12 0 0 1 1.8-3.7C38.9 63 32.4 60.6 32.4 50a10.17 10.17 0 0 1 2.9-7.4 10 10 0 0 1 .3-7.3s2.4-.8 7.6 2.9a27.67 27.67 0 0 1 14 0c5.3-3.6 7.6-2.9 7.6-2.9 1.5 3.9.6 6.7.3 7.3A10.88 10.88 0 0 1 68 50c0 10.7-6.5 13-12.7 13.7a6.82 6.82 0 0 1 1.9 5.2v7.6a1.37 1.37 0 0 0 1.9 1.3 27.76 27.76 0 0 0-9-54.1z" transform="translate(-22.3 -23.7)" id="Layer_1-2" data-name="Layer 1"/></svg>