<?xml version="1.0" encoding="utf-8"?>
<!-- Generator: Adobe Illustrator 21.0.2, SVG Export Plug-In . SVG Version: 6.00 Build 0)  -->
<svg version="1.1" id="Layer_1" xmlns="http://www.w3.org/2000/svg" xmlns:xlink="http://www.w3.org/1999/xlink" x="0px" y="0px"
	 viewBox="0 0 325.6 96" style="enable-background:new 0 0 325.6 96;" xml:space="preserve">
<style type="text/css">
	.st0{fill:#211452;}
	.st1{fill:#E40135;}
	.st2{fill:#BD3623;}
	.st3{fill:#0069B4;}
	.st4{fill:#83D0F5;}
</style>
<g>
	<g id="XMLID_71_">
		<circle id="XMLID_77_" class="st0" cx="49.3" cy="48.6" r="37.9"/>
		<g id="XMLID_72_">
			<polygon id="XMLID_76_" class="st1" points="67.9,30 67.9,67.1 49.3,48.6 			"/>
			<polygon id="XMLID_75_" class="st2" points="67.9,67.1 67.9,67.1 67.9,67.1 			"/>
			<polygon id="XMLID_74_" class="st3" points="30.8,30 49.3,48.6 30.8,67.1 			"/>
			<polygon id="XMLID_73_" class="st4" points="49.3,48.6 67.9,67.1 67.9,67.1 30.8,67.1 30.8,67.1 			"/>
		</g>
	</g>
	<g>
		<path class="st0" d="M122.5,57.9h-5.3v-8.3c0-0.7-0.1-1.3-0.4-1.6s-0.6-0.5-1-0.5c-0.4,0-0.9,0.2-1.4,0.6c-0.5,0.4-0.8,0.9-1,1.5
			v8.2H108v-8.3c0-0.7-0.1-1.3-0.4-1.6c-0.3-0.3-0.6-0.5-1-0.5c-0.4,0-0.9,0.2-1.4,0.6c-0.5,0.4-0.8,0.9-1,1.5v8.2h-5.3V43.2h4.8
			v2.2c0.5-0.8,1.2-1.4,2.2-1.8c0.9-0.4,2-0.6,3.2-0.6c0.6,0,1.1,0.1,1.6,0.2c0.4,0.1,0.8,0.3,1.2,0.6c0.3,0.2,0.6,0.5,0.8,0.8
			c0.2,0.3,0.3,0.6,0.5,1c0.5-0.8,1.2-1.4,2.1-1.9c0.9-0.4,1.9-0.7,3.1-0.7c1,0,1.7,0.2,2.3,0.5c0.6,0.4,1,0.8,1.3,1.4
			c0.3,0.5,0.5,1.1,0.6,1.7c0.1,0.6,0.1,1.2,0.1,1.7V57.9z"/>
		<path class="st0" d="M132.4,58.2c-1.3,0-2.5-0.2-3.5-0.6c-1-0.4-1.8-1-2.5-1.7c-0.7-0.7-1.2-1.5-1.5-2.4c-0.3-0.9-0.5-1.9-0.5-2.9
			s0.2-2,0.5-2.9c0.3-0.9,0.9-1.7,1.5-2.4s1.5-1.3,2.5-1.7c1-0.4,2.2-0.6,3.5-0.6c1.3,0,2.5,0.2,3.5,0.6c1,0.4,1.8,1,2.5,1.7
			c0.7,0.7,1.2,1.5,1.5,2.4c0.3,0.9,0.5,1.9,0.5,2.9s-0.2,2-0.5,2.9c-0.3,0.9-0.9,1.7-1.5,2.4c-0.7,0.7-1.5,1.3-2.5,1.7
			C134.8,58,133.7,58.2,132.4,58.2z M129.8,50.6c0,1,0.2,1.8,0.7,2.3c0.5,0.6,1.1,0.8,1.9,0.8c0.8,0,1.4-0.3,1.9-0.8
			c0.5-0.6,0.7-1.3,0.7-2.3c0-1-0.2-1.8-0.7-2.3c-0.5-0.6-1.1-0.8-1.9-0.8c-0.8,0-1.4,0.3-1.9,0.8C130,48.8,129.8,49.6,129.8,50.6z"
			/>
		<path class="st0" d="M166,57.9h-5.3v-8.3c0-0.7-0.1-1.3-0.4-1.6s-0.6-0.5-1-0.5c-0.4,0-0.9,0.2-1.4,0.6c-0.5,0.4-0.8,0.9-1,1.5
			v8.2h-5.3v-8.3c0-0.7-0.1-1.3-0.4-1.6c-0.3-0.3-0.6-0.5-1-0.5c-0.4,0-0.9,0.2-1.4,0.6c-0.5,0.4-0.8,0.9-1,1.5v8.2h-5.3V43.2h4.8
			v2.2c0.5-0.8,1.2-1.4,2.2-1.8c0.9-0.4,2-0.6,3.2-0.6c0.6,0,1.1,0.1,1.6,0.2c0.4,0.1,0.8,0.3,1.2,0.6c0.3,0.2,0.6,0.5,0.8,0.8
			c0.2,0.3,0.3,0.6,0.5,1c0.5-0.8,1.2-1.4,2.1-1.9c0.9-0.4,1.9-0.7,3.1-0.7c1,0,1.7,0.2,2.3,0.5c0.6,0.4,1,0.8,1.3,1.4
			s0.5,1.1,0.6,1.7c0.1,0.6,0.1,1.2,0.1,1.7V57.9z"/>
		<path class="st0" d="M175.8,58.2c-1.3,0-2.4-0.2-3.4-0.6c-1-0.4-1.8-0.9-2.5-1.6c-0.7-0.7-1.2-1.5-1.6-2.4
			c-0.4-0.9-0.5-1.8-0.5-2.8c0-1.1,0.2-2.1,0.5-3c0.3-1,0.9-1.8,1.5-2.5c0.7-0.7,1.5-1.3,2.5-1.7c1-0.4,2.2-0.6,3.5-0.6
			c1.3,0,2.5,0.2,3.5,0.6c1,0.4,1.8,1,2.5,1.7c0.7,0.7,1.2,1.5,1.5,2.4c0.3,0.9,0.5,1.9,0.5,2.9c0,0.3,0,0.6,0,0.9
			c0,0.3-0.1,0.5-0.1,0.8h-10.3c0.1,0.8,0.3,1.3,0.9,1.7c0.5,0.3,1.1,0.5,1.7,0.5c0.6,0,1.1-0.1,1.6-0.4c0.5-0.3,0.9-0.6,1-1.1
			l4.5,1.3c-0.6,1.2-1.5,2.1-2.8,2.9C179.1,57.8,177.6,58.2,175.8,58.2z M178.2,49c-0.1-0.7-0.4-1.3-0.8-1.7c-0.4-0.4-1-0.6-1.6-0.6
			s-1.2,0.2-1.6,0.6c-0.4,0.4-0.7,1-0.8,1.7H178.2z"/>
		<path class="st0" d="M200.4,57.9h-5.3v-8.3c0-0.7-0.2-1.3-0.5-1.6c-0.3-0.3-0.7-0.5-1.1-0.5c-0.4,0-0.9,0.2-1.4,0.6
			c-0.5,0.4-0.9,0.9-1.1,1.5v8.2h-5.3V43.2h4.8v2.2c0.5-0.8,1.3-1.4,2.2-1.8c0.9-0.4,2.1-0.6,3.3-0.6c1,0,1.8,0.2,2.4,0.5
			c0.6,0.4,1,0.8,1.3,1.4c0.3,0.5,0.5,1.1,0.6,1.7c0.1,0.6,0.1,1.2,0.1,1.7V57.9z"/>
		<path class="st0" d="M213.3,57.1c-0.7,0.3-1.5,0.6-2.4,0.8c-0.8,0.2-1.7,0.3-2.5,0.3c-0.6,0-1.2-0.1-1.7-0.2
			c-0.5-0.1-1-0.4-1.4-0.7c-0.4-0.3-0.7-0.8-1-1.3c-0.2-0.5-0.3-1.2-0.3-2v-6.7h-1.8v-4h1.8v-4.6h5.3v4.6h2.9v4h-2.9v4.9
			c0,0.5,0.1,0.8,0.3,1c0.2,0.2,0.5,0.3,0.8,0.3c0.3,0,0.6,0,0.9-0.1c0.3-0.1,0.7-0.2,1-0.4L213.3,57.1z"/>
		<path class="st0" d="M219.3,58.2c-1.5,0-2.6-0.5-3.4-1.4c-0.8-0.9-1.2-2.2-1.2-4v-9.7h5.3v8.5c0,0.7,0.1,1.2,0.4,1.5
			s0.7,0.5,1.2,0.5c0.4,0,0.8-0.1,1.3-0.3c0.4-0.2,0.9-0.6,1.3-1.2v-9h5.3v8.8c0,0.5,0.1,0.9,0.3,1c0.2,0.2,0.5,0.3,1,0.4v4.5
			c-0.5,0.1-1,0.2-1.4,0.2c-0.4,0-0.8,0.1-1.1,0.1c-1.8,0-2.9-0.7-3.1-2l-0.1-0.5c-0.7,0.9-1.5,1.6-2.5,2
			C221.6,58,220.6,58.2,219.3,58.2z"/>
		<path class="st0" d="M256.6,57.9h-5.3v-8.3c0-0.7-0.1-1.3-0.4-1.6s-0.6-0.5-1-0.5c-0.4,0-0.9,0.2-1.4,0.6c-0.5,0.4-0.8,0.9-1,1.5
			v8.2h-5.3v-8.3c0-0.7-0.1-1.3-0.4-1.6c-0.3-0.3-0.6-0.5-1-0.5c-0.4,0-0.9,0.2-1.4,0.6c-0.5,0.4-0.8,0.9-1,1.5v8.2h-5.3V43.2h4.8
			v2.2c0.5-0.8,1.2-1.4,2.2-1.8c0.9-0.4,2-0.6,3.2-0.6c0.6,0,1.1,0.1,1.6,0.2c0.4,0.1,0.8,0.3,1.2,0.6c0.3,0.2,0.6,0.5,0.8,0.8
			c0.2,0.3,0.3,0.6,0.5,1c0.5-0.8,1.2-1.4,2.1-1.9c0.9-0.4,1.9-0.7,3.1-0.7c1,0,1.7,0.2,2.3,0.5c0.6,0.4,1,0.8,1.3,1.4
			c0.3,0.5,0.5,1.1,0.6,1.7c0.1,0.6,0.1,1.2,0.1,1.7V57.9z"/>
		<path class="st0" d="M263.8,58.2c-0.7,0-1.4-0.1-2-0.4c-0.6-0.2-1.1-0.6-1.6-1c-0.4-0.4-0.8-0.9-1-1.4c-0.2-0.5-0.4-1.1-0.4-1.7
			c0-0.7,0.1-1.3,0.4-1.8c0.3-0.5,0.7-1,1.3-1.4c0.5-0.4,1.2-0.7,1.9-0.9c0.8-0.2,1.6-0.3,2.5-0.3c0.7,0,1.5,0.1,2.2,0.2
			c0.8,0.1,1.4,0.3,2,0.6v-1.3c0-1.3-0.4-2.3-1.1-3.1c-0.7-0.8-1.7-1.1-3-1.1c-0.8,0-1.6,0.1-2.3,0.4c-0.8,0.3-1.6,0.7-2.4,1.3
			l-0.7-1.3c1-0.6,1.9-1.1,2.8-1.4c0.9-0.3,1.8-0.5,2.8-0.5c1.8,0,3.2,0.5,4.2,1.5c1,1,1.6,2.4,1.6,4.3v6.6c0,0.5,0.2,0.8,0.7,0.8
			v1.7c-0.2,0-0.3,0-0.4,0c-0.1,0-0.2,0-0.3,0c-0.4,0-0.7-0.1-1-0.3c-0.3-0.2-0.5-0.6-0.5-1l-0.1-1.1c-0.6,0.9-1.5,1.5-2.5,2
			C265.9,58,264.8,58.2,263.8,58.2z M264.2,56.8c0.8,0,1.7-0.2,2.5-0.5c0.8-0.4,1.5-0.9,2-1.5c0.1-0.2,0.2-0.4,0.3-0.5
			c0.1-0.2,0.1-0.4,0.1-0.5v-2.4c-0.6-0.2-1.3-0.4-2-0.6c-0.7-0.1-1.4-0.2-2-0.2c-1.4,0-2.5,0.3-3.3,0.8c-0.8,0.5-1.3,1.3-1.3,2.3
			c0,0.4,0.1,0.8,0.2,1.1c0.1,0.4,0.4,0.7,0.7,1c0.3,0.3,0.7,0.5,1.1,0.7C263.1,56.7,263.6,56.8,264.2,56.8z"/>
		<path class="st0" d="M282.4,58.2c-1.1,0-2.2-0.3-3.2-0.9c-1-0.6-1.7-1.3-2.3-2.2v2.8h-1.7V37.5h1.9v8.9c0.7-1,1.4-1.8,2.3-2.4
			c0.9-0.6,2-0.9,3.2-0.9c1,0,1.9,0.2,2.7,0.6c0.8,0.4,1.5,1,2.1,1.7c0.6,0.7,1,1.5,1.3,2.4c0.3,0.9,0.5,1.8,0.5,2.8
			c0,1-0.2,2-0.5,2.9c-0.4,0.9-0.8,1.7-1.5,2.4c-0.6,0.7-1.4,1.2-2.2,1.6C284.2,58,283.3,58.2,282.4,58.2z M281.9,56.5
			c0.8,0,1.5-0.2,2.2-0.5s1.2-0.8,1.7-1.3c0.5-0.5,0.8-1.2,1.1-1.9c0.3-0.7,0.4-1.4,0.4-2.2c0-0.8-0.1-1.5-0.4-2.2
			c-0.3-0.7-0.6-1.3-1.1-1.9c-0.5-0.5-1-1-1.6-1.3c-0.6-0.3-1.3-0.5-2.1-0.5c-0.6,0-1.1,0.1-1.6,0.3c-0.5,0.2-1,0.5-1.4,0.8
			c-0.4,0.3-0.8,0.7-1.2,1.2c-0.3,0.4-0.6,0.9-0.9,1.4v4.5c0.1,0.5,0.3,1,0.6,1.4c0.3,0.4,0.7,0.8,1.2,1.1c0.5,0.3,1,0.6,1.5,0.8
			C280.9,56.4,281.4,56.5,281.9,56.5z"/>
		<path class="st0" d="M314.1,57.9h-1.9v-8.1c0-1.7-0.3-2.9-0.8-3.7c-0.5-0.8-1.3-1.2-2.4-1.2c-0.6,0-1.1,0.1-1.6,0.3
			c-0.5,0.2-1,0.5-1.4,0.9c-0.4,0.4-0.8,0.8-1.1,1.3c-0.3,0.5-0.6,1.1-0.7,1.7v8.9h-1.9v-8.1c0-1.7-0.3-3-0.8-3.8
			c-0.5-0.8-1.3-1.2-2.4-1.2c-1.1,0-2.1,0.4-2.9,1.1c-0.9,0.8-1.5,1.8-1.8,3v8.9h-1.9V43.4h1.7v3.3c0.6-1.1,1.4-2,2.3-2.6
			c1-0.6,2-0.9,3.2-0.9c1.2,0,2.2,0.3,3,1c0.7,0.7,1.2,1.6,1.3,2.7c1.4-2.5,3.2-3.7,5.6-3.7c0.8,0,1.5,0.1,2.1,0.4
			c0.6,0.3,1,0.7,1.4,1.3c0.3,0.5,0.6,1.2,0.8,2c0.2,0.8,0.2,1.6,0.2,2.6V57.9z"/>
	</g>
</g>
</svg>
