<svg xmlns="http://www.w3.org/2000/svg" viewBox="11752 461.032 550.928 122.261"><defs><style>.a{fill:#fff}</style></defs><path class="a" d="M11905.847 526.567c0 1.934.215 4.3.215 6.661v6.231a.462.462 0 0 1-.43.43h-4.082a.462.462 0 0 1-.43-.43V505.94c0-.43.215-.645.43-.645h9.67c8.595 0 12.248 4.942 12.248 10.744 0 6.446-4.3 10.529-12.892 10.529a34.345 34.345 0 0 1-4.729-.001zm12.463-10.528c0-3.868-1.934-7.091-7.306-7.091a41.4 41.4 0 0 1-5.157-.215c0 1.719.215 4.942.215 6.876 0 2.149 0 5.372-.215 7.306h4.512c5.161-.001 7.951-2.149 7.951-6.876zm6.446 12.247c0-6.446 4.3-12.892 12.033-12.892 6.016 0 9.025 3.653 9.025 9.239 0 .859-.215 1.5-1.289 1.5h-15.042a8.855 8.855 0 0 0-.215 2.578c0 4.512 2.793 8.165 7.95 8.165a10.236 10.236 0 0 0 6.231-1.934.665.665 0 0 1 .43-.215.462.462 0 0 1 .43.43v2.149a1.116 1.116 0 0 1-.43.859 12.823 12.823 0 0 1-7.306 2.149c-7.517.22-11.817-4.937-11.817-12.028zm12.033-9.884c-3.653 0-5.587 2.149-6.661 4.942h12.028a4.978 4.978 0 0 0-5.367-4.942zm32.445.645a1.736 1.736 0 0 0-1.5 1.934c0 1.074.43 1.934.43 3.438 0 4.512-2.793 7.95-10.1 7.95-3.438 0-4.727 1.074-4.727 2.364 0 1.074.859 1.934 2.793 1.934 2.578 0 4.3-.43 8.165-.43 4.727 0 6.661 2.364 6.661 5.587 0 4.942-4.727 8.595-12.677 8.595-6.876 0-10.314-2.364-10.314-6.231 0-2.149 1.289-3.223 2.149-3.223h2.578a.462.462 0 0 1 .43.43.21.21 0 0 1-.215.215 2.44 2.44 0 0 0-.645 1.719c0 2.364 1.719 3.868 6.231 3.868 4.942 0 7.95-1.934 7.95-4.942 0-1.934-.859-3.008-3.653-3.008-2.578 0-4.512.43-7.306.43-3.653 0-5.8-1.5-5.8-3.868s1.934-4.3 4.942-4.512c-3.223-1.074-4.942-3.653-4.942-7.306 0-5.157 4.083-8.38 9.239-8.38 3.868 0 6.446 1.719 7.735 3.868.645-2.364 2.364-4.083 4.727-4.083 1.719 0 2.364 1.074 2.364 2.578s-.645 2.364-1.934 2.364c-1.506-.217-1.506-1.291-2.581-1.291zm-15.041 4.942c0 4.083 2.149 5.8 4.727 5.8 3.008 0 4.942-1.5 4.942-5.587 0-3.653-1.934-5.8-4.942-5.8s-4.727 1.934-4.727 5.587zm30.513-8.595c6.661 0 9.025 3.223 9.025 7.306 0 3.008-.215 7.52-.215 10.1 0 3.438.645 5.372 1.5 5.8a.789.789 0 0 1 .215.645.686.686 0 0 1-.645.645h-2.149a1.178 1.178 0 0 1-1.289-.859c-.645-.859-.859-2.578-1.074-4.083-1.289 3.438-4.083 5.587-8.38 5.587-4.512 0-7.091-2.578-7.091-6.231 0-4.942 4.727-9.025 14.611-9.669v-1.721c0-2.793-1.289-4.512-4.942-4.512a5.042 5.042 0 0 0-4.3 1.719c-.645.859-1.074 1.5-2.149 1.5a1.8 1.8 0 0 1-1.934-1.934c.006-1.285 2.37-4.293 8.817-4.293zm-1.72 21.917c3.868 0 6.231-3.008 6.231-6.876v-3.223c-7.52.645-10.314 3.223-10.314 6.446.003 2.364 1.934 3.653 4.083 3.653zm15.9 1.289a1.629 1.629 0 0 1-.43-.859v-2.147c0-.43 0-.645.43-.645a.789.789 0 0 1 .645.215 9.924 9.924 0 0 0 6.231 2.149c3.223 0 4.727-1.5 4.727-3.438 0-2.578-2.364-3.008-5.587-4.3-3.223-1.074-6.231-2.793-6.231-7.306 0-3.653 3.223-6.876 8.81-6.876a11.349 11.349 0 0 1 6.231 1.719 2.219 2.219 0 0 1 .859 1.719 1.966 1.966 0 0 1-1.719 2.149 1.531 1.531 0 0 1-1.289-.645 6.568 6.568 0 0 0-4.3-1.5c-2.793 0-4.083 1.719-4.083 3.438 0 2.578 2.149 3.008 4.727 3.868 4.727 1.719 7.306 3.223 7.306 7.306s-3.653 7.091-9.025 7.091a12.406 12.406 0 0 1-7.302-1.938zm27.933 1.933c-4.3 0-7.52-2.578-7.52-7.735v-16.115a.462.462 0 0 1 .43-.43h3.653a.462.462 0 0 1 .43.43v15.041c0 3.653 1.934 5.157 4.942 5.157a6.936 6.936 0 0 0 7.091-7.306v-12.892a.462.462 0 0 1 .43-.43h3.653a.462.462 0 0 1 .43.43v18.908a15.449 15.449 0 0 0 .43 3.868.462.462 0 0 1-.43.43h-3.223a.462.462 0 0 1-.43-.43 30.337 30.337 0 0 1-.215-4.727 10.473 10.473 0 0 1-9.671 5.801zm18.479-1.933a1.629 1.629 0 0 1-.43-.859v-2.147c0-.43 0-.645.43-.645a.789.789 0 0 1 .645.215 9.924 9.924 0 0 0 6.231 2.149c3.223 0 4.727-1.5 4.727-3.438 0-2.578-2.364-3.008-5.587-4.3-3.223-1.074-6.231-2.793-6.231-7.306 0-3.653 3.223-6.876 8.81-6.876a11.349 11.349 0 0 1 6.231 1.719 2.219 2.219 0 0 1 .859 1.719 1.966 1.966 0 0 1-1.719 2.149 1.532 1.532 0 0 1-1.289-.645 6.568 6.568 0 0 0-4.3-1.5c-2.793 0-4.083 1.719-4.083 3.438 0 2.578 2.149 3.008 4.727 3.868 4.727 1.719 7.306 3.223 7.306 7.306s-3.653 7.091-9.025 7.091a12.92 12.92 0 0 1-7.302-1.938zm37.476 43.763l.477-119.253 1.934.008-.477 119.253zm28.919-118.538a2.8 2.8 0 0 1-5.587 0 2.793 2.793 0 1 1 5.587 0zm-.645 31.586a.462.462 0 0 1-.43.43h-3.652a.462.462 0 0 1-.43-.43v-22.779a.462.462 0 0 1 .43-.43h3.653a.462.462 0 0 1 .43.43zm19.554-24.065c4.3 0 7.521 2.578 7.521 7.735v16.33a.462.462 0 0 1-.43.43h-3.653a.462.462 0 0 1-.43-.43v-15.255c0-3.653-1.934-5.157-4.727-5.157a7.123 7.123 0 0 0-7.091 7.52v12.892a.462.462 0 0 1-.43.43h-3.653a.462.462 0 0 1-.43-.43v-18.908a15.45 15.45 0 0 0-.43-3.868.462.462 0 0 1 .43-.43h3.008a.462.462 0 0 1 .43.43 28.841 28.841 0 0 1 .215 4.512 10.608 10.608 0 0 1 9.67-5.801zm12.677 23.206a1.629 1.629 0 0 1-.43-.859v-2.147c0-.43 0-.645.43-.645a.789.789 0 0 1 .645.215 9.924 9.924 0 0 0 6.231 2.149c3.223 0 4.727-1.5 4.727-3.438 0-2.578-2.364-3.008-5.587-4.3-3.223-1.074-6.231-2.793-6.231-7.306 0-3.653 3.223-6.876 8.81-6.876a11.349 11.349 0 0 1 6.231 1.719 2.219 2.219 0 0 1 .859 1.719 1.966 1.966 0 0 1-1.719 2.149 1.532 1.532 0 0 1-1.289-.645 6.568 6.568 0 0 0-4.3-1.5c-2.793 0-4.083 1.719-4.083 3.438 0 2.578 2.149 3.008 4.727 3.868 4.727 1.719 7.306 3.223 7.306 7.306s-3.653 7.091-9.025 7.091a12.406 12.406 0 0 1-7.302-1.938zm20.627-22.347h2.793a.462.462 0 0 1 .43.43 20.394 20.394 0 0 1 .43 4.3 8.034 8.034 0 0 1 8.165-5.589c6.231 0 10.958 5.157 10.958 12.462 0 7.091-4.3 12.677-10.958 12.677-3.868 0-6.231-1.719-7.52-4.3.215 4.727.215 8.595.215 13.322a.462.462 0 0 1-.43.43h-3.438a.462.462 0 0 1-.43-.43v-26.641a49.957 49.957 0 0 0-.43-6.231c-.214-.215.001-.43.215-.43zm4.512 15.256c0 3.008 1.934 5.8 6.016 5.8 4.512 0 7.306-3.653 7.306-9.454 0-6.231-3.008-9.239-7.306-9.239-4.083 0-6.016 2.793-6.016 6.661zm27.934-23.636a2.8 2.8 0 0 1-5.587 0 2.793 2.793 0 0 1 5.587 0zm-.645 31.586a.462.462 0 0 1-.43.43h-3.653a.462.462 0 0 1-.43-.43v-22.779a.462.462 0 0 1 .43-.43h3.653a.462.462 0 0 1 .43.43zm15.902-19.982c-3.438 0-5.157 3.438-5.157 7.091v12.891a.462.462 0 0 1-.43.43h-3.653a.462.462 0 0 1-.43-.43v-18.908a15.449 15.449 0 0 0-.43-3.868.462.462 0 0 1 .43-.43h3.008a.462.462 0 0 1 .43.43 33.342 33.342 0 0 1 .215 4.942c1.074-3.653 3.868-6.231 7.306-6.231 3.008 0 4.512 1.5 4.512 3.438 0 1.5-.645 2.364-1.934 2.364-1.505-.002-1.29-1.719-3.867-1.719zm13.106-11.604a2.8 2.8 0 0 1-5.587 0 2.793 2.793 0 0 1 5.587 0zm-.43 31.586a.462.462 0 0 1-.43.43h-3.653a.462.462 0 0 1-.43-.43v-22.779a.462.462 0 0 1 .43-.43h3.653a.462.462 0 0 1 .43.43zm19.339-24.065c4.3 0 7.52 2.578 7.52 7.735v16.33a.462.462 0 0 1-.43.43h-3.652a.462.462 0 0 1-.43-.43v-15.255c0-3.653-1.934-5.157-4.727-5.157a7.123 7.123 0 0 0-7.091 7.52v12.892a.462.462 0 0 1-.43.43h-3.653a.462.462 0 0 1-.43-.43v-18.908a15.449 15.449 0 0 0-.43-3.868.462.462 0 0 1 .43-.43h3.008a.462.462 0 0 1 .43.43 28.835 28.835 0 0 1 .215 4.512 10.856 10.856 0 0 1 9.67-5.801zm32.445 3.653a1.736 1.736 0 0 0-1.5 1.934c0 1.074.43 1.934.43 3.438 0 4.512-2.793 7.95-10.1 7.95-3.438 0-4.727 1.074-4.727 2.364 0 1.074.859 1.934 2.793 1.934 2.578 0 4.3-.43 8.165-.43 4.727 0 6.661 2.364 6.661 5.587 0 4.942-4.727 8.595-12.677 8.595-6.876 0-10.314-2.364-10.314-6.231 0-2.149 1.289-3.223 2.149-3.223h2.578a.462.462 0 0 1 .43.43.21.21 0 0 1-.215.215 2.44 2.44 0 0 0-.645 1.719c0 2.364 1.719 3.868 6.231 3.868 4.942 0 7.95-1.934 7.95-4.942 0-1.934-.859-3.008-3.653-3.008-2.578 0-4.512.43-7.306.43-3.653 0-5.8-1.5-5.8-3.868s1.934-4.3 4.942-4.512a7.318 7.318 0 0 1-4.942-7.306c0-5.157 4.083-8.38 9.239-8.38 3.868 0 6.446 1.719 7.735 3.868.645-2.364 2.364-4.083 4.727-4.083 1.719 0 2.364 1.074 2.364 2.578s-.645 2.364-1.934 2.364c-1.292-.217-1.292-1.291-2.581-1.291zm-15.041 4.942c0 4.083 2.149 5.8 4.727 5.8 3.008 0 4.942-1.5 4.942-5.587 0-3.653-1.934-5.8-4.942-5.8-2.793 0-4.727 1.934-4.727 5.587zm-141.17 34.595c4.3 0 7.735 2.578 7.735 7.52v16.33a.462.462 0 0 1-.43.43h-3.653a.462.462 0 0 1-.43-.43v-15.471c0-3.438-1.719-4.942-4.942-4.942-3.653 0-7.091 2.578-7.091 7.52v12.893a.462.462 0 0 1-.43.43h-3.651a.462.462 0 0 1-.43-.43v-33.52a.462.462 0 0 1 .43-.43h3.438a.462.462 0 0 1 .43.43c0 3.868-.215 11.6-.43 15.471a10.151 10.151 0 0 1 9.454-5.801zm12.033 12.891c0-6.446 4.3-12.892 12.033-12.892 6.016 0 9.025 3.653 9.025 9.239 0 .859-.215 1.5-1.289 1.5h-15.042a8.854 8.854 0 0 0-.215 2.578c0 4.512 2.793 8.165 7.95 8.165a10.236 10.236 0 0 0 6.231-1.934.789.789 0 0 1 .645-.215.462.462 0 0 1 .43.43v2.149a1.116 1.116 0 0 1-.43.859 12.823 12.823 0 0 1-7.306 2.149c-7.732.22-12.032-5.152-12.032-12.028zm12.033-9.884c-3.653 0-5.587 2.149-6.661 4.942h12.028a4.978 4.978 0 0 0-5.367-4.942zm22.132-3.008c6.661 0 9.025 3.223 9.025 7.306 0 3.008-.215 7.52-.215 10.1 0 3.438.645 5.372 1.5 5.8a.789.789 0 0 1 .215.645.686.686 0 0 1-.645.645h-2.149a1.178 1.178 0 0 1-1.289-.859 15.884 15.884 0 0 1-1.074-4.083c-1.289 3.438-4.083 5.587-8.38 5.587-4.512 0-7.091-2.578-7.091-6.231 0-4.942 4.727-9.025 14.611-9.669v-1.721c0-2.793-1.289-4.512-4.942-4.512a5.042 5.042 0 0 0-4.3 1.719c-.645.859-1.074 1.5-2.149 1.5a1.8 1.8 0 0 1-1.934-1.934c.006-1.5 2.37-4.293 8.817-4.293zm-1.72 21.7c3.868 0 6.231-3.008 6.231-6.876v-3.224c-7.521.645-10.314 3.223-10.314 6.446.003 2.367 1.934 3.654 4.083 3.654zm21.272 2.365a.462.462 0 0 1-.43.43h-3.652a.462.462 0 0 1-.43-.43v-33.734a.462.462 0 0 1 .43-.43h3.653a.462.462 0 0 1 .43.43zm10.099-28.792c.215-.215.215-.43.645-.43a.57.57 0 0 1 .645.645v1.074a32.06 32.06 0 0 1-.43 4.512c1.289 0 3.653-.215 5.372-.215a.462.462 0 0 1 .43.43v2.578c0 .215 0 .43-.43.43a44.911 44.911 0 0 1-5.372-.215 36.618 36.618 0 0 1 .215 5.372v7.52c0 3.223 1.289 4.083 3.223 4.083a2.315 2.315 0 0 0 1.719-.43c.43-.215.645 0 .645.215v3.008a.462.462 0 0 1-.43.43 10.461 10.461 0 0 1-2.578.215c-4.083 0-7.091-2.364-7.091-7.735v-7.736a38.885 38.885 0 0 1 .43-5.372 16.338 16.338 0 0 1-3.008.215c-.215 0-.43-.43-.43-.859 0-.645 0-.859.43-1.074a18.411 18.411 0 0 0 6.015-6.661zm23.636 4.728c4.3 0 7.735 2.578 7.735 7.52v16.33a.462.462 0 0 1-.43.43h-3.653a.462.462 0 0 1-.43-.43v-15.471c0-3.438-1.719-4.942-4.942-4.942-3.653 0-7.091 2.578-7.091 7.52v12.893a.462.462 0 0 1-.43.43h-3.651a.462.462 0 0 1-.43-.43v-33.52a.462.462 0 0 1 .43-.43h3.438a.462.462 0 0 1 .43.43c0 3.868-.215 11.6-.43 15.471a10.151 10.151 0 0 1 9.454-5.801zm10.314 34.593c-.215 0-.215-.215-.215-.645v-2.79c0-.43.215-.43.43-.43s.215 0 .43.215a4.29 4.29 0 0 0 1.934.43c2.149 0 4.727-1.289 6.661-6.661l-9.239-22.991c-.215-.43 0-.645.215-.645h3.869c.43 0 .645.215.645.43l4.512 12.677a68.348 68.348 0 0 1 2.149 7.091 55.4 55.4 0 0 1 2.149-7.091l4.727-12.892c0-.43.215-.43.645-.43h3.438c.43 0 .43.215.43.645l-9.243 23.632c-2.793 7.306-6.446 9.884-10.744 9.884a8.418 8.418 0 0 1-2.793-.429zm-101.849 33.09h-2.793a.462.462 0 0 1-.43-.43 23.494 23.494 0 0 1-.215-4.3c-1.074 3.438-4.083 5.372-8.165 5.372-6.231 0-10.958-5.372-10.958-12.677 0-7.091 4.3-12.462 10.958-12.462a7.988 7.988 0 0 1 7.52 4.512c-.215-4.512-.215-9.454-.215-14.181a.462.462 0 0 1 .43-.43h3.438a.462.462 0 0 1 .43.43v27.5a49.96 49.96 0 0 0 .43 6.231.462.462 0 0 1-.43.435zm-4.3-15.471c0-3.008-1.934-5.8-6.016-5.8-4.512 0-7.306 3.438-7.306 9.239 0 6.231 2.793 9.454 7.306 9.454 4.083 0 6.016-2.793 6.016-6.446zm9.028 3.868c0-6.446 4.3-12.892 12.033-12.892 6.016 0 9.025 3.653 9.025 9.239 0 .859-.215 1.5-1.289 1.5h-15.042a8.854 8.854 0 0 0-.215 2.578c0 4.512 2.793 8.165 7.95 8.165a10.236 10.236 0 0 0 6.231-1.934.789.789 0 0 1 .645-.215.462.462 0 0 1 .43.43v2.149a1.116 1.116 0 0 1-.43.859 12.823 12.823 0 0 1-7.306 2.149c-7.732.22-12.032-5.152-12.032-12.028zm12.033-9.884c-3.653 0-5.587 2.149-6.661 4.942h12.028a4.978 4.978 0 0 0-5.367-4.942zm28.147 1.934a6.363 6.363 0 0 0-3.868-1.289c-4.942 0-7.735 4.512-7.735 9.025 0 5.8 3.438 8.81 7.95 8.81a8.6 8.6 0 0 0 5.8-1.934.665.665 0 0 1 .43-.215c.215 0 .43.215.43.645v2.149c0 .43 0 .645-.43.859a11.4 11.4 0 0 1-6.876 2.149c-7.306 0-11.818-4.942-11.818-12.248a12.652 12.652 0 0 1 12.894-12.893 9.279 9.279 0 0 1 5.8 1.719 2.38 2.38 0 0 1 1.074 2.149 2.122 2.122 0 0 1-1.719 2.149c-.857-.001-1.287-.43-1.932-1.075zm12.033-12.463a2.8 2.8 0 0 1-5.587 0 2.844 2.844 0 0 1 2.793-2.793 2.708 2.708 0 0 1 2.794 2.793zm-.645 31.586a.462.462 0 0 1-.43.43h-3.653a.462.462 0 0 1-.43-.43V559.01a.462.462 0 0 1 .43-.43h3.653a.462.462 0 0 1 .43.43zm5.373-.859a1.629 1.629 0 0 1-.43-.859v-2.147c0-.43 0-.645.43-.645a.789.789 0 0 1 .645.215 9.924 9.924 0 0 0 6.231 2.149c3.223 0 4.727-1.5 4.727-3.438 0-2.578-2.364-3.008-5.587-4.3-3.223-1.074-6.231-2.793-6.231-7.306 0-3.653 3.223-6.876 8.81-6.876a11.349 11.349 0 0 1 6.231 1.719 2.219 2.219 0 0 1 .859 1.719 1.966 1.966 0 0 1-1.719 2.149 1.532 1.532 0 0 1-1.289-.645 6.568 6.568 0 0 0-4.3-1.5c-2.793 0-4.083 1.719-4.083 3.438 0 2.578 2.149 3.008 4.727 3.868 4.727 1.719 7.306 3.223 7.306 7.306s-3.653 7.091-9.025 7.091a12.405 12.405 0 0 1-7.302-1.938zm25.569-30.727a2.8 2.8 0 0 1-5.587 0 2.844 2.844 0 0 1 2.793-2.793 2.708 2.708 0 0 1 2.794 2.793zm-.645 31.586a.462.462 0 0 1-.43.43h-3.652a.462.462 0 0 1-.43-.43V559.01a.462.462 0 0 1 .43-.43h3.653a.462.462 0 0 1 .43.43zm28.363-11.603c0 6.231-3.653 12.677-11.818 12.677-7.95 0-11.818-6.446-11.818-12.677s3.868-12.462 11.818-12.462c8.165 0 11.818 6.016 11.818 12.462zm-4.727 0c0-5.157-2.149-9.239-7.091-9.239s-7.091 4.083-7.091 9.239 2.149 9.454 7.091 9.454 7.091-4.297 7.091-9.454zm22.777-12.462c4.3 0 7.52 2.578 7.52 7.735v16.33a.462.462 0 0 1-.43.43h-3.652a.462.462 0 0 1-.43-.43v-15.47c0-3.653-1.934-5.157-4.727-5.157a7.123 7.123 0 0 0-7.091 7.52v12.893a.462.462 0 0 1-.43.43h-3.653a.462.462 0 0 1-.43-.43v-18.909a15.45 15.45 0 0 0-.43-3.868.462.462 0 0 1 .43-.43h3.008a.462.462 0 0 1 .43.43 28.842 28.842 0 0 1 .215 4.512 10.446 10.446 0 0 1 9.67-5.586zm12.677 23.206a1.629 1.629 0 0 1-.43-.859v-2.147c0-.43 0-.645.43-.645a.789.789 0 0 1 .645.215 9.924 9.924 0 0 0 6.231 2.149c3.223 0 4.727-1.5 4.727-3.438 0-2.578-2.364-3.008-5.587-4.3-3.223-1.074-6.231-2.793-6.231-7.306 0-3.653 3.223-6.876 8.81-6.876a11.349 11.349 0 0 1 6.231 1.719 2.219 2.219 0 0 1 .859 1.719 1.966 1.966 0 0 1-1.719 2.149 1.532 1.532 0 0 1-1.289-.645 6.568 6.568 0 0 0-4.3-1.5c-2.793 0-4.083 1.719-4.083 3.438 0 2.578 2.149 3.008 4.727 3.868 4.727 1.719 7.306 3.223 7.306 7.306s-3.653 7.091-9.025 7.091c-3.65-.004-5.798-.864-7.302-1.938zm29.437-3.436a4.3 4.3 0 1 1-4.3-4.3 4.31 4.31 0 0 1 4.3 4.3zm-2.578 2.578c-.215 0-.215 0-.215-.215-.645-.43-1.5-1.934-1.934-1.934h-.43v2.149h-.859a.21.21 0 0 1-.215-.215v-5.163h1.5c1.289 0 2.149.645 2.149 1.5s-.645 1.5-1.934 1.5c1.289.215 2.149 1.934 2.793 2.149a3.63 3.63 0 0 0 .645-2.149 3.23 3.23 0 1 0-3.217 3.45 4.332 4.332 0 0 0 2.364-.645h-.645zm-2.149-2.793a1.015 1.015 0 0 0 1.074-1.074.787.787 0 0 0-.859-.859h-.645v1.934zm-501.939 5.367h-.215l-31.37-22.774c-.215 0-.215-.215-.215-.43s0-.215.215-.43l19.338-13.966h.43a.21.21 0 0 1 .215.215l12.033 36.743c0 .215 0 .43-.215.43 0 .212 0 .212-.216.212zm-30.511-23.2l29.652 21.7-11.173-35.026z"/><path class="a" d="M11764.893 559.872a.75.75 0 0 1-.43-.215l-11.818-36.743c0-.215 0-.43.215-.43.215-.215.43-.215.43 0l31.371 22.776c.215 0 .215.215.215.43s0 .215-.215.43l-19.339 13.966c-.215-.214-.215-.214-.429-.214zm-10.959-36.099l11.388 35.025 18.479-13.323zm30.51-23.422c-.215 0-.215 0-.215-.215-.215-.215-.215-.215 0-.43l12.034-36.74a.21.21 0 0 1 .215-.215h.43l31.371 22.776c.215 0 .215.215.215.43s-.215.215-.215.43l-43.835 13.964zm12.034-36.526l-11.6 35.454 41.682-13.537z"/><path class="a" d="M11784.445 545.905h-.215l-31.37-22.776c-.215 0-.215-.215-.215-.43s0-.215.215-.43l31.371-22.776c.215 0 .215-.215.43 0 .215 0 .215.215.215.43v45.552c0 .215-.215.215-.43.43zm-30.726-23.206l30.082 21.917v-43.834z"/><path class="a" d="M11796.263 582.649a.75.75 0 0 1-.43-.215l-12.032-36.743v-.43c.215-.215.215-.215.43 0l43.4 13.967c.215 0 .215.215.215.43s0 .43-.215.43l-30.938 22.561zm-11.173-36.528l11.603 35.454 30.082-21.918z"/><path class="a" d="M11866.31 559.87h-38.676c-.215 0-.215 0-.43-.215a.3.3 0 0 1 0-.43l26.859-36.74c0-.215.215-.215.43-.215s.215.215.43.215l12.03 36.743v.43c0 .212-.428.212-.643.212zm-37.817-.857h37.388l-11.6-35.454z"/><path class="a" d="M11854.493 523.127c-.215 0-.215 0-.43-.215l-26.859-36.74c0-.215-.215-.215 0-.43 0-.215.215-.215.43-.215h38.676c.215 0 .215 0 .43.215v.43l-12.033 36.742a.21.21 0 0 1-.214.213zm-26-36.743l25.785 35.456 11.6-35.454zm6.662 96.265a.75.75 0 0 1-.43-.215l-7.52-22.776v-.43c0-.215.215-.215.43-.215h38.676a.75.75 0 0 1 .43.215c0 .215 0 .43-.215.43l-31.156 22.991zm-6.876-22.777l7.091 21.7 29.652-21.7z"/><path class="a" d="M11835.154 582.648h-38.676a.75.75 0 0 1-.43-.215c0-.215 0-.43.215-.43l31.371-22.776h.43a.21.21 0 0 1 .215.215l7.306 22.776v.43c-.001.215-.431 0-.431 0zm-37.387-.859h36.743l-7.091-21.7zm80.576-58.66h-23.85c-.215 0-.215 0-.43-.215v-.43l11.818-36.743a.448.448 0 0 1 .86 0l12.032 36.743v.43c-.21.215-.21.215-.43.215zm-23.206-.86h22.777l-11.389-35.024z"/><path class="a" d="M11866.311 559.87a.75.75 0 0 1-.43-.215l-12.032-36.74v-.43c0-.215.215-.215.43-.215h23.85c.215 0 .215 0 .43.215v.43l-12.033 36.742c.215.213 0 .213-.215.213zm-11.173-36.741l11.388 35.024 11.388-35.024h-22.776zm-27.504-36.742h-.215l-31.37-22.991c-.215-.215-.215-.215-.215-.43s.215-.215.43-.215h38.676c.215 0 .215 0 .43.215v.43l-7.305 22.776a.665.665 0 0 0-.43.215zm-29.866-22.777l29.652 21.7 7.091-21.7h-36.743z"/><path class="a" d="M11866.311 486.387h-38.676c-.215 0-.215 0-.43-.215v-.43l7.306-22.776a.21.21 0 0 1 .214-.215h.43l31.371 22.776c.215.215.215.215.215.43a.462.462 0 0 1-.43.43zm-38.032-1.075h36.743l-29.652-21.487zm-75.204 37.817h-.215c-.215-.214-.215-.214-.215-.429l12.033-36.743a.21.21 0 0 1 .215-.215h.43l19.338 13.967c.215 0 .215.215.215.43s0 .215-.215.43l-31.371 22.56zm12.247-36.528l-11.388 35.024 29.652-21.7z"/><path class="a" d="M11784.445 500.352h-.215l-19.338-13.966c-.215 0-.215-.215-.215-.43s0-.215.215-.43l31.156-22.776c.215-.215.43-.215.43 0 .215.215.215.215.215.43l-12.033 36.743c0 .215 0 .43-.215.43zm-18.694-14.396l18.479 13.322 11.388-35.024z"/><path class="a" d="M11835.155 583.293h-38.677a.789.789 0 0 1-.645-.215l-31.371-22.772-.43-.43-12.032-36.962v-.645l12.033-36.742a.462.462 0 0 1 .43-.43l31.371-22.776a.789.789 0 0 1 .644-.215h38.677a.789.789 0 0 1 .645.215l31.371 22.776.43.43 12.033 36.743v.645l-12.249 36.957a.462.462 0 0 1-.43.43l-31.37 22.776c0 .215-.215.215-.43.215zm-38.462-1.934h38.032l30.726-22.347 11.818-36.1-11.817-36.306-30.727-22.566h-38.032l-30.726 22.346-11.818 36.313 11.818 36.1zm30.941-20.842h-.214l-43.4-13.967a.993.993 0 0 1-.645-1.074v-45.553a1.182 1.182 0 0 1 .645-1.074l43.4-13.967a.785.785 0 0 1 1.074.43l26.859 36.743a1.37 1.37 0 0 1 0 1.289l-26.859 36.743a1.116 1.116 0 0 1-.86.43zm-42.334-15.901l41.9 13.752 26-35.668-26-35.668-41.9 13.536z"/></svg>