<svg xmlns="http://www.w3.org/2000/svg" viewBox="12665.943 1044.063 261.59 57.961"><defs><style>.a{fill:#004a61}.b{fill:#b2d235}.c{fill:#16762e}.d{fill:#66a236}</style></defs><path class="a" d="M12738.624 1075.241c0 .92.1 2.044.1 3.169v2.964a.22.22 0 0 1-.2.2h-1.949a.22.22 0 0 1-.2-.2v-15.946c0-.2.1-.307.2-.307h4.6c4.089 0 5.827 2.351 5.827 5.111 0 3.067-2.044 5.009-6.133 5.009a16.435 16.435 0 0 1-2.245 0zm5.929-5.009c0-1.84-.92-3.373-3.476-3.373a19.7 19.7 0 0 1-2.453-.1c0 .818.1 2.351.1 3.271 0 1.022 0 2.556-.1 3.476h2.151c2.449-.003 3.778-1.025 3.778-3.274zm3.169 5.827c0-3.067 2.044-6.133 5.725-6.133 2.862 0 4.293 1.738 4.293 4.4 0 .409-.1.716-.613.716h-7.156a4.213 4.213 0 0 0-.1 1.227 3.619 3.619 0 0 0 3.782 3.884 4.87 4.87 0 0 0 2.964-.92.376.376 0 0 1 .307-.1.22.22 0 0 1 .2.2v1.022a.531.531 0 0 1-.2.409 6.1 6.1 0 0 1-3.476 1.022c-3.682.1-5.726-2.353-5.726-5.727zm5.622-4.7a3.22 3.22 0 0 0-3.169 2.351h5.725a2.313 2.313 0 0 0-2.556-2.353zm15.436.305a.826.826 0 0 0-.716.92c0 .511.2.92.2 1.636 0 2.147-1.329 3.782-4.8 3.782-1.636 0-2.249.511-2.249 1.124 0 .511.409.92 1.329.92 1.227 0 2.044-.2 3.884-.2 2.249 0 3.169 1.124 3.169 2.658 0 2.351-2.249 4.089-6.031 4.089-3.271 0-4.907-1.124-4.907-2.964 0-1.022.613-1.533 1.022-1.533h1.227a.22.22 0 0 1 .2.2.1.1 0 0 1-.1.1 1.161 1.161 0 0 0-.307.818c0 1.124.818 1.84 2.964 1.84 2.351 0 3.782-.92 3.782-2.351 0-.92-.409-1.431-1.738-1.431-1.227 0-2.147.2-3.476.2-1.738 0-2.76-.716-2.76-1.84a2.276 2.276 0 0 1 2.351-2.147 3.482 3.482 0 0 1-2.351-3.476c0-2.453 1.942-3.987 4.4-3.987a4.086 4.086 0 0 1 3.68 1.84 2.383 2.383 0 0 1 2.249-1.942c.818 0 1.124.511 1.124 1.227s-.307 1.124-.92 1.124c-.715-.096-.715-.607-1.226-.607zm-7.156 2.351c0 1.942 1.022 2.76 2.249 2.76 1.431 0 2.351-.716 2.351-2.658 0-1.738-.92-2.76-2.351-2.76s-2.249.92-2.249 2.658zm14.511-4.089c3.169 0 4.293 1.533 4.293 3.476 0 1.431-.1 3.578-.1 4.8 0 1.636.307 2.556.716 2.76a.376.376 0 0 1 .1.307.326.326 0 0 1-.307.307h-1.022a.561.561 0 0 1-.613-.409 7.556 7.556 0 0 1-.511-1.942 3.95 3.95 0 0 1-3.987 2.658c-2.147 0-3.373-1.227-3.373-2.964 0-2.351 2.249-4.293 6.951-4.6v-.818c0-1.329-.613-2.147-2.351-2.147a2.4 2.4 0 0 0-2.044.818c-.307.409-.511.716-1.022.716a.858.858 0 0 1-.92-.92c.003-.611 1.23-2.042 4.19-2.042zm-.818 10.427a2.986 2.986 0 0 0 2.964-3.271v-1.534c-3.578.307-4.907 1.533-4.907 3.067a1.832 1.832 0 0 0 1.948 1.738zm7.667.613a.775.775 0 0 1-.2-.409v-1.022c0-.2 0-.307.2-.307a.376.376 0 0 1 .307.1 4.721 4.721 0 0 0 2.964 1.022c1.533 0 2.249-.716 2.249-1.636 0-1.227-1.124-1.431-2.658-2.044-1.533-.511-2.964-1.329-2.964-3.476 0-1.738 1.533-3.271 4.191-3.271a5.4 5.4 0 0 1 2.964.818 1.056 1.056 0 0 1 .409.818.935.935 0 0 1-.818 1.022.729.729 0 0 1-.613-.307 3.125 3.125 0 0 0-2.044-.716 1.708 1.708 0 0 0-1.942 1.636c0 1.227 1.022 1.431 2.249 1.84 2.249.818 3.476 1.533 3.476 3.476s-1.738 3.373-4.293 3.373a5.67 5.67 0 0 1-3.477-.917zm13.192.919a3.356 3.356 0 0 1-3.578-3.68v-7.671a.22.22 0 0 1 .2-.2h1.738a.22.22 0 0 1 .2.2v7.16a2.137 2.137 0 0 0 2.351 2.453 3.3 3.3 0 0 0 3.373-3.476v-6.137a.22.22 0 0 1 .2-.2h1.738a.22.22 0 0 1 .2.2v9a7.35 7.35 0 0 0 .2 1.84.22.22 0 0 1-.2.2h-1.533a.22.22 0 0 1-.2-.2 14.434 14.434 0 0 1-.1-2.249 4.983 4.983 0 0 1-4.589 2.76zm8.889-.919a.775.775 0 0 1-.2-.409v-1.022c0-.2 0-.307.2-.307a.376.376 0 0 1 .307.1 4.721 4.721 0 0 0 2.964 1.022c1.533 0 2.249-.716 2.249-1.636 0-1.227-1.124-1.431-2.658-2.044-1.533-.511-2.964-1.329-2.964-3.476 0-1.738 1.533-3.271 4.191-3.271a5.4 5.4 0 0 1 2.964.818 1.056 1.056 0 0 1 .409.818.935.935 0 0 1-.818 1.022.729.729 0 0 1-.613-.307 3.125 3.125 0 0 0-2.044-.716 1.708 1.708 0 0 0-1.942 1.636c0 1.227 1.022 1.431 2.249 1.84 2.249.818 3.476 1.533 3.476 3.476s-1.738 3.373-4.293 3.373a5.9 5.9 0 0 1-3.477-.917z"/><path class="b" d="M12719.917 1055.921l-14.925-10.836h-18.4l-14.924 10.836-5.725 17.48 5.725 17.484 14.924 10.832h18.4l14.925-10.832 5.726-17.484zm-18.502 34.964l-20.65-6.648v-21.672l20.649-6.645 12.779 17.481z"/><path class="c" d="M12671.668 1090.882l14.925 10.835-5.725-17.48z"/><path class="d" d="M12680.868 1084.237l-14.925-10.836 5.725 17.48zm0-21.672l20.547-6.645-14.822-10.835zm33.325 10.836l-12.778 17.48h18.5z"/><path class="c" d="M12701.415 1055.921l12.778 17.48 5.722-17.48zm3.578 45.796l14.922-10.836h-18.5z"/><path class="d" d="M12701.414 1090.881l-14.822 10.836h18.4zm24.126-17.48l-5.622-17.48-5.725 17.48zm-24.125-17.48h18.5l-14.922-10.836zm-29.747 0l-5.725 17.48 14.925-10.835z"/><path class="c" d="M12680.868 1062.565l5.725-17.48-14.925 10.836z"/><path class="a" d="M12822.82 1101.81l.227-56.734.92.004-.227 56.734z"/><path class="d" d="M12836.554 1045.392a1.333 1.333 0 0 1-2.658 0 1.329 1.329 0 0 1 2.658 0zm-.2 15.027a.22.22 0 0 1-.2.2h-1.738a.22.22 0 0 1-.2-.2v-10.836a.22.22 0 0 1 .2-.2h1.738a.22.22 0 0 1 .2.2zm9.195-11.449a3.356 3.356 0 0 1 3.578 3.68v7.769a.22.22 0 0 1-.2.2h-1.738a.22.22 0 0 1-.2-.2v-7.258c0-1.738-.92-2.453-2.249-2.453a3.389 3.389 0 0 0-3.373 3.578v6.133a.22.22 0 0 1-.2.2h-1.738a.22.22 0 0 1-.2-.2v-9a7.35 7.35 0 0 0-.2-1.84.22.22 0 0 1 .2-.2h1.431a.22.22 0 0 1 .2.2 13.72 13.72 0 0 1 .1 2.147 5.165 5.165 0 0 1 4.589-2.756zm6.027 11.04a.775.775 0 0 1-.2-.409v-1.022c0-.2 0-.307.2-.307a.376.376 0 0 1 .307.1 4.721 4.721 0 0 0 2.964 1.022c1.533 0 2.249-.716 2.249-1.636 0-1.227-1.124-1.431-2.658-2.044-1.533-.511-2.964-1.329-2.964-3.476 0-1.738 1.533-3.271 4.191-3.271a5.4 5.4 0 0 1 2.964.818 1.056 1.056 0 0 1 .409.818.935.935 0 0 1-.818 1.022.729.729 0 0 1-.613-.307 3.125 3.125 0 0 0-2.044-.716 1.708 1.708 0 0 0-1.942 1.636c0 1.227 1.022 1.431 2.249 1.84 2.249.818 3.476 1.533 3.476 3.476s-1.738 3.373-4.293 3.373a5.9 5.9 0 0 1-3.477-.917zm9.815-10.631h1.329a.22.22 0 0 1 .2.2 9.7 9.7 0 0 1 .2 2.044 3.822 3.822 0 0 1 3.896-2.653c2.964 0 5.213 2.453 5.213 5.929 0 3.373-2.044 6.031-5.213 6.031a3.676 3.676 0 0 1-3.578-2.044c.1 2.249.1 4.089.1 6.338a.22.22 0 0 1-.2.2h-1.637a.22.22 0 0 1-.2-.2v-12.676a23.768 23.768 0 0 0-.2-2.964c-.11-.103-.01-.205.09-.205zm2.147 7.258a2.653 2.653 0 0 0 2.862 2.76c2.147 0 3.476-1.738 3.476-4.5 0-2.964-1.431-4.4-3.476-4.4-1.942 0-2.862 1.329-2.862 3.169zm13.292-11.245a1.333 1.333 0 0 1-2.658 0 1.329 1.329 0 0 1 2.658 0zm-.307 15.027a.22.22 0 0 1-.2.2h-1.738a.22.22 0 0 1-.2-.2v-10.836a.22.22 0 0 1 .2-.2h1.738a.22.22 0 0 1 .2.2zm7.56-9.507c-1.636 0-2.453 1.636-2.453 3.373v6.133a.22.22 0 0 1-.2.2h-1.738a.22.22 0 0 1-.2-.2v-9a7.35 7.35 0 0 0-.2-1.84.22.22 0 0 1 .2-.2h1.431a.22.22 0 0 1 .2.2 15.863 15.863 0 0 1 .1 2.351 3.769 3.769 0 0 1 3.478-2.959c1.431 0 2.147.716 2.147 1.636 0 .716-.307 1.124-.92 1.124-.716 0-.614-.818-1.845-.818zm6.241-5.52a1.333 1.333 0 0 1-2.658 0 1.329 1.329 0 1 1 2.658 0zm-.2 15.027a.22.22 0 0 1-.2.2h-1.738a.22.22 0 0 1-.2-.2v-10.836a.22.22 0 0 1 .2-.2h1.738a.22.22 0 0 1 .2.2zm9.195-11.449a3.356 3.356 0 0 1 3.578 3.68v7.769a.22.22 0 0 1-.2.2h-1.636a.22.22 0 0 1-.2-.2v-7.258c0-1.738-.92-2.453-2.249-2.453a3.389 3.389 0 0 0-3.373 3.578v6.133a.22.22 0 0 1-.2.2h-1.738a.22.22 0 0 1-.2-.2v-9a7.35 7.35 0 0 0-.2-1.84.22.22 0 0 1 .2-.2h1.431a.22.22 0 0 1 .2.2 13.72 13.72 0 0 1 .1 2.147 4.888 4.888 0 0 1 4.487-2.756zm15.538 1.738a.826.826 0 0 0-.716.92c0 .511.2.92.2 1.636 0 2.147-1.329 3.782-4.8 3.782-1.636 0-2.249.511-2.249 1.124 0 .511.409.92 1.329.92 1.227 0 2.044-.2 3.884-.2 2.249 0 3.169 1.124 3.169 2.658 0 2.351-2.249 4.089-6.031 4.089-3.271 0-4.907-1.124-4.907-2.964 0-1.022.613-1.533 1.022-1.533h1.227a.22.22 0 0 1 .2.2.1.1 0 0 1-.1.1 1.161 1.161 0 0 0-.307.818c0 1.124.818 1.84 2.964 1.84 2.351 0 3.782-.92 3.782-2.351 0-.92-.409-1.431-1.738-1.431-1.227 0-2.147.2-3.476.2-1.738 0-2.76-.716-2.76-1.84a2.276 2.276 0 0 1 2.351-2.147 3.482 3.482 0 0 1-2.351-3.476c0-2.453 1.942-3.987 4.4-3.987a4.086 4.086 0 0 1 3.68 1.84 2.383 2.383 0 0 1 2.249-1.936c.818 0 1.124.511 1.124 1.227s-.307 1.124-.92 1.124c-.715-.102-.715-.613-1.226-.613zm-7.156 2.351c0 1.942 1.022 2.76 2.249 2.76 1.431 0 2.351-.716 2.351-2.658 0-1.738-.92-2.76-2.351-2.76s-2.249.92-2.249 2.658zm-67.16 16.453a3.4 3.4 0 0 1 3.68 3.578v7.769a.22.22 0 0 1-.2.2h-1.738a.22.22 0 0 1-.2-.2v-7.36a2.065 2.065 0 0 0-2.351-2.351 3.329 3.329 0 0 0-3.373 3.578v6.133a.22.22 0 0 1-.2.2h-1.756a.22.22 0 0 1-.2-.2v-15.947a.22.22 0 0 1 .2-.2h1.636a.22.22 0 0 1 .2.2c0 1.84-.1 5.52-.2 7.36a4.624 4.624 0 0 1 4.502-2.76zm5.622 6.138c0-3.067 2.044-6.133 5.725-6.133 2.862 0 4.293 1.738 4.293 4.4 0 .409-.1.716-.613.716h-7.156a4.212 4.212 0 0 0-.1 1.227 3.619 3.619 0 0 0 3.782 3.884 4.87 4.87 0 0 0 2.964-.92.376.376 0 0 1 .307-.1.22.22 0 0 1 .2.2v1.022a.531.531 0 0 1-.2.409 6.1 6.1 0 0 1-3.476 1.022c-3.579.1-5.726-2.46-5.726-5.727zm5.725-4.7a3.22 3.22 0 0 0-3.169 2.351h5.725a2.313 2.313 0 0 0-2.556-2.353zm10.524-1.433c3.169 0 4.293 1.533 4.293 3.476 0 1.431-.1 3.578-.1 4.8 0 1.636.307 2.556.716 2.76a.376.376 0 0 1 .1.307.326.326 0 0 1-.307.307h-1.022a.561.561 0 0 1-.613-.409 4.888 4.888 0 0 1-.511-1.942 3.95 3.95 0 0 1-3.987 2.658c-2.147 0-3.373-1.227-3.373-2.964 0-2.351 2.249-4.293 6.951-4.6v-.818c0-1.329-.613-2.147-2.351-2.147a2.4 2.4 0 0 0-2.044.818c-.307.409-.511.716-1.022.716a.858.858 0 0 1-.92-.92c.003-.713 1.23-2.042 4.19-2.042zm-.818 10.325a2.986 2.986 0 0 0 2.964-3.271v-1.534c-3.578.307-4.907 1.533-4.907 3.067a1.832 1.832 0 0 0 1.948 1.738zm10.125 1.124a.22.22 0 0 1-.2.2h-1.747a.22.22 0 0 1-.2-.2v-16.054a.22.22 0 0 1 .2-.2h1.738a.22.22 0 0 1 .2.2zm4.804-13.703c.1-.1.1-.2.307-.2a.271.271 0 0 1 .307.307v.511a15.254 15.254 0 0 1-.2 2.147c.613 0 1.738-.1 2.556-.1a.22.22 0 0 1 .2.2v1.227c0 .1 0 .2-.2.2a21.367 21.367 0 0 1-2.556-.1 17.419 17.419 0 0 1 .1 2.556v3.578c0 1.533.613 1.942 1.533 1.942a1.1 1.1 0 0 0 .818-.2c.2-.1.307 0 .307.1v1.432a.22.22 0 0 1-.2.2 4.977 4.977 0 0 1-1.227.1c-1.942 0-3.373-1.124-3.373-3.68v-3.68a18.5 18.5 0 0 1 .2-2.556 7.773 7.773 0 0 1-1.431.1c-.1 0-.2-.2-.2-.409 0-.307 0-.409.2-.511a8.759 8.759 0 0 0 2.859-3.164zm11.347 2.249a3.4 3.4 0 0 1 3.68 3.578v7.769a.22.22 0 0 1-.2.2h-1.738a.22.22 0 0 1-.2-.2v-7.36a2.065 2.065 0 0 0-2.351-2.351 3.329 3.329 0 0 0-3.373 3.578v6.133a.22.22 0 0 1-.2.2h-1.756a.22.22 0 0 1-.2-.2v-15.947a.22.22 0 0 1 .2-.2h1.636a.22.22 0 0 1 .2.2c0 1.84-.1 5.52-.2 7.36a4.624 4.624 0 0 1 4.502-2.76zm4.904 16.463c-.1 0-.1-.1-.1-.307v-1.328c0-.2.1-.2.2-.2s.1 0 .2.1a2.041 2.041 0 0 0 .92.2c1.022 0 2.249-.613 3.169-3.169l-4.4-10.938c-.1-.2 0-.307.1-.307h1.84c.2 0 .307.1.307.2l2.147 6.031a32.5 32.5 0 0 1 1.022 3.373 26.354 26.354 0 0 1 1.022-3.373l2.249-6.133c0-.2.1-.2.307-.2h1.636c.2 0 .2.1.2.307l-4.4 11.245c-1.329 3.476-3.067 4.7-5.111 4.7a3.159 3.159 0 0 1-1.308-.201zm-48.554 15.742h-1.333a.22.22 0 0 1-.2-.2 11.175 11.175 0 0 1-.1-2.044 3.745 3.745 0 0 1-3.885 2.556c-2.964 0-5.213-2.556-5.213-6.031 0-3.373 2.044-5.929 5.213-5.929a3.8 3.8 0 0 1 3.578 2.147c-.1-2.147-.1-4.5-.1-6.747a.22.22 0 0 1 .2-.2h1.636a.22.22 0 0 1 .2.2v13.079a23.768 23.768 0 0 0 .2 2.964c.111.103.009.205-.196.205zm-2.044-7.36a2.653 2.653 0 0 0-2.862-2.76c-2.147 0-3.476 1.636-3.476 4.4 0 2.964 1.329 4.5 3.476 4.5 1.942 0 2.862-1.329 2.862-3.067zm4.396 1.84c0-3.067 2.044-6.133 5.725-6.133 2.862 0 4.293 1.738 4.293 4.4 0 .409-.1.716-.613.716h-7.156a4.212 4.212 0 0 0-.1 1.227 3.619 3.619 0 0 0 3.782 3.884 4.87 4.87 0 0 0 2.964-.92.376.376 0 0 1 .307-.1.22.22 0 0 1 .2.2v1.022a.531.531 0 0 1-.2.409 6.1 6.1 0 0 1-3.476 1.022c-3.682.1-5.726-2.46-5.726-5.727zm5.622-4.7a3.22 3.22 0 0 0-3.169 2.351h5.725a2.313 2.313 0 0 0-2.556-2.353zm13.392.918a3.027 3.027 0 0 0-1.84-.613c-2.351 0-3.68 2.147-3.68 4.293 0 2.76 1.636 4.191 3.782 4.191a4.091 4.091 0 0 0 2.76-.92.376.376 0 0 1 .307-.1c.1 0 .2.1.2.307v1.022c0 .2 0 .307-.2.409a5.422 5.422 0 0 1-3.271 1.022c-3.476 0-5.622-2.351-5.622-5.827a6.019 6.019 0 0 1 6.132-6.135 4.414 4.414 0 0 1 2.76.818 1.132 1.132 0 0 1 .511 1.022 1.01 1.01 0 0 1-.818 1.022 1.258 1.258 0 0 1-1.021-.511zm5.724-5.929a1.333 1.333 0 0 1-2.658 0 1.353 1.353 0 0 1 1.329-1.329 1.289 1.289 0 0 1 1.329 1.329zm-.2 15.027a.22.22 0 0 1-.2.2h-1.738a.22.22 0 0 1-.2-.2v-10.836a.22.22 0 0 1 .2-.2h1.738a.22.22 0 0 1 .2.2zm2.546-.409a.775.775 0 0 1-.2-.409v-1.022c0-.2 0-.307.2-.307a.376.376 0 0 1 .307.1 4.721 4.721 0 0 0 2.964 1.022c1.533 0 2.249-.716 2.249-1.636 0-1.227-1.124-1.431-2.658-2.044-1.533-.511-2.964-1.329-2.964-3.476 0-1.738 1.533-3.271 4.191-3.271a5.4 5.4 0 0 1 2.964.818 1.056 1.056 0 0 1 .409.818.935.935 0 0 1-.818 1.022.729.729 0 0 1-.613-.307 3.125 3.125 0 0 0-2.044-.716 1.708 1.708 0 0 0-1.942 1.636c0 1.227 1.022 1.431 2.249 1.84 2.249.818 3.476 1.533 3.476 3.476s-1.738 3.373-4.293 3.373a5.67 5.67 0 0 1-3.477-.917zm12.067-14.618a1.333 1.333 0 0 1-2.658 0 1.353 1.353 0 0 1 1.329-1.329 1.289 1.289 0 0 1 1.329 1.329zm-.307 15.027a.22.22 0 0 1-.2.2h-1.738a.22.22 0 0 1-.2-.2v-10.836a.22.22 0 0 1 .2-.2h1.738a.22.22 0 0 1 .2.2zm13.495-5.52c0 2.964-1.738 6.031-5.622 6.031-3.782 0-5.622-3.067-5.622-6.031s1.839-5.929 5.621-5.929c3.885 0 5.623 2.862 5.623 5.929zm-2.249 0c0-2.453-1.022-4.4-3.373-4.4s-3.373 1.942-3.373 4.4 1.022 4.5 3.373 4.5 3.377-2.047 3.377-4.5zm10.835-5.929a3.356 3.356 0 0 1 3.578 3.68v7.769a.22.22 0 0 1-.2.2h-1.738a.22.22 0 0 1-.2-.2v-7.36c0-1.738-.92-2.453-2.249-2.453a3.389 3.389 0 0 0-3.373 3.578v6.133a.22.22 0 0 1-.2.2h-1.738a.22.22 0 0 1-.2-.2v-9a7.35 7.35 0 0 0-.2-1.84.22.22 0 0 1 .2-.2h1.431a.22.22 0 0 1 .2.2 13.72 13.72 0 0 1 .1 2.147 4.97 4.97 0 0 1 4.589-2.654zm6.027 11.04a.775.775 0 0 1-.2-.409v-1.022c0-.2 0-.307.2-.307a.376.376 0 0 1 .307.1 4.721 4.721 0 0 0 2.964 1.022c1.533 0 2.249-.716 2.249-1.636 0-1.227-1.124-1.431-2.658-2.044-1.533-.511-2.964-1.329-2.964-3.476 0-1.738 1.533-3.271 4.191-3.271a5.4 5.4 0 0 1 2.964.818 1.056 1.056 0 0 1 .409.818.935.935 0 0 1-.818 1.022.729.729 0 0 1-.613-.307 3.125 3.125 0 0 0-2.044-.716 1.708 1.708 0 0 0-1.942 1.636c0 1.227 1.022 1.431 2.249 1.84 2.249.818 3.476 1.533 3.476 3.476s-1.738 3.373-4.293 3.373a5.9 5.9 0 0 1-3.477-.917zm14.009-1.636a2.044 2.044 0 1 1-2.044-2.044 1.987 1.987 0 0 1 2.044 2.044zm-1.227 1.227c-.1 0-.1 0-.1-.1-.307-.2-.716-.92-.92-.92h-.1v1.022h-.409a.1.1 0 0 1-.1-.1v-2.457h.716c.613 0 1.022.307 1.022.716s-.307.716-.92.716c.613.1 1.022.92 1.329 1.022a1.727 1.727 0 0 0 .307-1.022 1.537 1.537 0 1 0-1.533 1.636 2.061 2.061 0 0 0 1.124-.307h-.409zm-.92-1.329a.483.483 0 0 0 .511-.511.374.374 0 0 0-.409-.409h-.2v.92z"/></svg>