<?xml version="1.0" encoding="utf-8"?>
<!-- Generator: Adobe Illustrator 22.1.0, SVG Export Plug-In . SVG Version: 6.00 Build 0)  -->
<svg version="1.1" id="Layer_1" xmlns="http://www.w3.org/2000/svg" xmlns:xlink="http://www.w3.org/1999/xlink" x="0px" y="0px"
	 viewBox="0 0 760 795" style="enable-background:new 0 0 760 795;" xml:space="preserve">
<style type="text/css">
	.st0{fill:#2D2926;}
</style>
<title>logo/Logo outline 2018 black@2x</title>
<desc>Created with Sketch.</desc>
<g id="logo_x2F_Logo-outline-2018-black">
	<g id="Green-Mark">
		<path id="Fill-11" class="st0" d="M641.6,641.7c6.7,3.9,15.3,1.6,19.3-5.3l64.2-112.4c4-7,1.6-16-5.2-19.9l-98.3-57.4l-78.4,45.7
			v91.8L641.6,641.7z M511.2,474.1l110.4-64.4l8.1,4.7L736,476.5c22,12.9,29.6,41.2,16.9,63.5l-64.2,112.4
			c-12.7,22.3-41.1,30-63.2,17.1l-114.3-66.7V474.1z"/>
		<path id="Fill-1" class="st0" d="M490.4,461.7v286.8h-16h16c0,25.7-20.6,46.5-46.2,46.5H315.8c-25.6,0-46.2-20.9-46.2-46.5V461.7
			L24,318.3C2,305.5-5.5,277.1,7.2,254.9l64.2-112.4c12.7-22.3,41.1-30,63.2-17.1L373,264.6c4.4,2.5,9.7,2.5,14.1,0l238.4-139.2
			c22.1-12.9,50.5-5.2,63.2,17.1l64.2,112.4c12.7,22.2,5.2,50.6-16.9,63.5L490.4,461.7z M474.4,748.5h-16V443.3l7.9-4.6l253.5-148
			c6.8-4,9.2-13,5.2-20l-64.2-112.4c-3.9-6.9-12.5-9.2-19.3-5.3L403.2,292.3c-14.3,8.4-32,8.4-46.3,0L118.4,153.1
			c-6.7-3.9-15.4-1.6-19.3,5.3L34.9,270.7c-4,7-1.6,16,5.2,20l261.5,152.6v305.2c0,8.1,6.4,14.5,14.2,14.5h128.3
			c7.8,0,14.2-6.5,14.2-14.5H474.4z"/>
		<path id="Fill-6" class="st0" d="M458.4,46.5c0-8.1-6.4-14.5-14.2-14.5H315.8V16v16c-7.8,0-14.2,6.5-14.2,14.5v176.6l71.3,41.6
			c4.4,2.5,9.7,2.5,14,0l71.3-41.6V46.5z M315.8,16V0h128.3c25.6,0,46.2,20.9,46.2,46.5v195l-7.9,4.6l-79.3,46.3
			c-14.3,8.4-32,8.4-46.3,0l-87.2-50.9v-195c0-25.7,20.6-46.5,46.2-46.5V16z"/>
		<path id="Fill-4" class="st0" d="M118.4,641.7l151.2-88.3v-91.8l-78.4-45.7L40.2,504.2c-6.8,4-9.2,13-5.2,19.9l64.2,112.4
			C103,643.3,111.7,645.7,118.4,641.7l8.1,13.8L118.4,641.7z M71.3,652.3L7.2,540C-5.5,517.8,2,489.4,24,476.5l167.2-97.6
			l110.4,64.4v128.5l-167.1,97.5C112.4,682.3,84.1,674.6,71.3,652.3z"/>
	</g>
</g>
<polygon id="Combined-Shape_1_" class="st0" points="540.3,559.2 540.2,490.1 600.1,455.6 600.2,524.8 "/>
</svg>
