<svg id="Layer_1" data-name="Layer 1" xmlns="http://www.w3.org/2000/svg" width="144.32" height="38.98" viewBox="0 0 144.32 38.98"><defs><style>.cls-1{fill:#fff;}</style></defs><title>social</title><path class="cls-1" d="M86.12,12.32a2.26,2.26,0,1,1-2.26-2.25h0A2.26,2.26,0,0,1,86.12,12.32ZM93.29,22.5v0l-0.13,8.18A11.28,11.28,0,0,1,82,41.86L73.8,42h0l-8.18-.13A11.28,11.28,0,0,1,54.44,30.71L54.31,22.5v0l0.13-8.18A11.28,11.28,0,0,1,65.59,3.14L73.8,3h0L82,3.14A11.28,11.28,0,0,1,93.16,14.29Zm-3.63,0-0.13-8.15a7.67,7.67,0,0,0-7.58-7.58L73.8,6.64l-8.15.13a7.67,7.67,0,0,0-7.58,7.58L57.94,22.5l0.13,8.15a7.67,7.67,0,0,0,7.58,7.58l8.15,0.13,8.15-.13a7.67,7.67,0,0,0,7.58-7.58Zm-5.85,0a10,10,0,1,1-10-10h0a10,10,0,0,1,10,10h0Zm-3.63,0a6.38,6.38,0,1,0-6.38,6.38h0a6.39,6.39,0,0,0,6.38-6.38h0Z" transform="translate(-2.68 -3.01)"/><g id="Layer_1-2" data-name="Layer 1-2"><path class="cls-1" d="M22.62,3a20,20,0,0,0-6.32,38.9A1,1,0,0,0,17.67,41V37.53C12.14,38.75,11,34.81,11,34.81a5.59,5.59,0,0,0-2.22-2.94c-1.79-1.22.14-1.22,0.14-1.22A4.31,4.31,0,0,1,12,32.73a4.16,4.16,0,0,0,5.74,1.65A4.39,4.39,0,0,1,19,31.72c-4.45-.5-9.12-2.22-9.12-9.83A7.3,7.3,0,0,1,12,16.58a7.18,7.18,0,0,1,.22-5.24s1.72-.57,5.45,2.08a19.86,19.86,0,0,1,10,0c3.8-2.58,5.45-2.08,5.45-2.08a7,7,0,0,1,.22,5.24,7.81,7.81,0,0,1,2.08,5.31c0,7.68-4.67,9.33-9.12,9.83a4.89,4.89,0,0,1,1.36,3.73v5.45a1,1,0,0,0,1.36.93A19.92,19.92,0,0,0,22.62,3Z" transform="translate(-2.68 -3.01)"/></g><g id="Layer_1-2-2" data-name="Layer 1-2"><path id="twitter" class="cls-1" d="M147,9.85a19.7,19.7,0,0,1-5.24,1.43,9.23,9.23,0,0,0,4-5.08A18.3,18.3,0,0,1,140,8.42a9,9,0,0,0-6.67-2.94,9.2,9.2,0,0,0-9.13,9.21,9.85,9.85,0,0,0,.24,2.14,26,26,0,0,1-18.81-9.6,9.1,9.1,0,0,0-1.27,4.6,9.29,9.29,0,0,0,4,7.7,8.94,8.94,0,0,1-4.13-1.19v0.08a9.28,9.28,0,0,0,7.3,9,8.19,8.19,0,0,1-2.38.32,13,13,0,0,1-1.75-.16A9.21,9.21,0,0,0,116,34.05a18.25,18.25,0,0,1-11.35,4,19.46,19.46,0,0,1-2.14-.16,25.54,25.54,0,0,0,14,4.13c16.74,0,25.95-14,25.95-26.27V14.53A14.42,14.42,0,0,0,147,9.85Z" transform="translate(-2.68 -3.01)"/></g></svg>