<svg xmlns="http://www.w3.org/2000/svg" width="238" height="39.02" viewBox="0 0 238 39.02"><title>Artboard 1</title><path d="M83.28,9.32A2.26,2.26,0,1,1,81,7.07a2.26,2.26,0,0,1,2.28,2.25ZM90.45,19.5l-.13,8.18A11.29,11.29,0,0,1,79.16,38.86L71,39l-8.18-.13A11.27,11.27,0,0,1,51.6,27.71l-.13-8.21.13-8.18A11.28,11.28,0,0,1,62.75.14L71,0l8.2.14A11.28,11.28,0,0,1,90.32,11.29Zm-3.63,0-.13-8.15a7.67,7.67,0,0,0-7.58-7.58L71,3.64l-8.15.13a7.67,7.67,0,0,0-7.58,7.58l-.13,8.15.13,8.15a7.67,7.67,0,0,0,7.58,7.58l8.15.13,8.15-.13a7.67,7.67,0,0,0,7.58-7.58ZM81,19.5a10,10,0,1,1-10-10A10,10,0,0,1,81,19.5Zm-3.63,0A6.38,6.38,0,1,0,71,25.88h0a6.4,6.4,0,0,0,6.38-6.38Z" style="fill:#444"/><path d="M19.78,0a20,20,0,0,0-6.32,38.9,1,1,0,0,0,1.3-.56,1,1,0,0,0,.07-.34V34.53c-5.53,1.22-6.67-2.72-6.67-2.72a5.62,5.62,0,0,0-2.22-2.94c-1.79-1.22.14-1.22.14-1.22a4.31,4.31,0,0,1,3.08,2.08,4.16,4.16,0,0,0,5.63,1.71h0l.11-.06a4.4,4.4,0,0,1,1.26-2.66C11.71,28.22,7,26.5,7,18.89a7.33,7.33,0,0,1,2.12-5.31,7.19,7.19,0,0,1,.22-5.24s1.72-.57,5.45,2.08a19.93,19.93,0,0,1,10,0c3.8-2.58,5.45-2.08,5.45-2.08a7,7,0,0,1,.22,5.24,7.79,7.79,0,0,1,2.08,5.31c0,7.68-4.67,9.33-9.12,9.83a4.91,4.91,0,0,1,1.36,3.73V37.9a1,1,0,0,0,1,1,1,1,0,0,0,.36-.07A19.92,19.92,0,0,0,19.78,0Z" style="fill:#444"/><path d="M144.16,6.85a19.49,19.49,0,0,1-5.24,1.43,9.27,9.27,0,0,0,4-5.08,18.37,18.37,0,0,1-5.76,2.22,9,9,0,0,0-6.67-2.94,9.2,9.2,0,0,0-9.13,9.21,9.62,9.62,0,0,0,.24,2.14,26,26,0,0,1-18.81-9.6,9.17,9.17,0,0,0-1.27,4.6,9.3,9.3,0,0,0,4,7.7,8.85,8.85,0,0,1-4.13-1.19v.08a9.28,9.28,0,0,0,7.3,9,8.33,8.33,0,0,1-2.38.32,12.79,12.79,0,0,1-1.75-.16,9.21,9.21,0,0,0,8.6,6.47,18.22,18.22,0,0,1-11.35,4,19.08,19.08,0,0,1-2.14-.16,25.58,25.58,0,0,0,14,4.13c16.74,0,26-14,26-26.27V11.53a14.45,14.45,0,0,0,4.49-4.68Z" style="fill:#444"/><path d="M160.49,38.12V14.36h-7.34V38.12Zm0-32.17a3.79,3.79,0,1,0-7.57,0,3.6,3.6,0,0,0,3.46,3.74h.26a3.62,3.62,0,0,0,3.85-3.38V5.94Zm12,32.17V24.58a5.63,5.63,0,0,1,.27-2,4.41,4.41,0,0,1,4.13-2.95c2.92,0,4.74,1.65,4.74,4.91V38.12H189V24.22c0-7.44-4-10.91-9.27-10.91a8,8,0,0,0-7.31,4.08l.05-3.18h-7.38c.11,2.27,0,23.9,0,23.9Z" style="fill:#444"/><path d="M227.63,31.44a.68.68,0,0,0,.93-.25l3.09-5.42a.71.71,0,0,0-.25-1L226.66,22l-3.78,2.21v4.42Zm-6.29-8.08,5.32-3.1.39.23,5.13,3a2.26,2.26,0,0,1,.81,3.06L229.9,32a2.23,2.23,0,0,1-3.05.82l-5.51-3.21Z" style="fill:#444"/><path d="M220.34,22.77V36.59h0a2.23,2.23,0,0,1-2.23,2.24h-6.18a2.23,2.23,0,0,1-2.23-2.24V22.77l-11.84-6.91a2.26,2.26,0,0,1-.81-3.06l3.1-5.42a2.22,2.22,0,0,1,3-.82l11.49,6.71a.69.69,0,0,0,.68,0l11.49-6.71a2.23,2.23,0,0,1,3.05.82L233,12.8a2.26,2.26,0,0,1-.81,3.06Zm-.77,13.82h-.77V21.88l.38-.22,12.21-7.13a.71.71,0,0,0,.25-1l-3.09-5.41a.67.67,0,0,0-.93-.26L216.14,14.6a2.18,2.18,0,0,1-2.23,0l-11.5-6.7a.68.68,0,0,0-.93.25l-3.09,5.41a.72.72,0,0,0,.25,1l12.6,7.35V36.59a.69.69,0,0,0,.69.7h6.18a.7.7,0,0,0,.68-.7Z" style="fill:#444"/><path d="M218.8,2.76a.69.69,0,0,0-.69-.7h-6.18v0a.69.69,0,0,0-.69.7v8.51l3.44,2a.67.67,0,0,0,.67,0l3.44-2V2.76Zm-6.87-1.47V.52h6.18a2.23,2.23,0,0,1,2.22,2.24v9.4l-.38.22-3.82,2.23a2.22,2.22,0,0,1-2.23,0l-4.2-2.45V2.76A2.23,2.23,0,0,1,211.93.52Z" style="fill:#444"/><path d="M202.41,31.44l7.29-4.25V22.76l-3.78-2.2-7.27,4.25a.72.72,0,0,0-.26,1l3.1,5.42a.66.66,0,0,0,.92.25l.39.67Zm-2.27.51-3.09-5.41a2.26,2.26,0,0,1,.81-3.06l8.06-4.7,5.32,3.1v6.19l-8.05,4.7A2.21,2.21,0,0,1,200.14,32Z" style="fill:#444"/><polygon points="222.74 27.46 222.74 24.14 225.63 22.47 225.63 25.81 222.74 27.46" style="fill:#444"/></svg>