<svg class="accelerate-digi-svg" xmlns="http://www.w3.org/2000/svg" viewBox="0 0 393.87 401.63"><title>accelerate-digital</title><path d="M219.24 251.56h-44.6l-13.05 15.07 32.51 37.55a3.77 3.77 0 0 0 2.84 1.3 3.77 3.77 0 0 0 2.85-1.3l32.51-37.55zm-38.64 6h11.76l-.6.69-5.29 6.11-4.07-4.7zm20.93 0h11.77l-5.88 6.79zm-5.19 0h1.23l6.57 7.59h-14.38zm-13.13 7.59h-12.39l6.2-7.15zm22.17 3l-8.42 27-8.42-27zM216.89 258l6.19 7.15h-12.39zm-31.5 10.15l8.2 26.28-22.75-26.28zm23.13 0h14.56l-22.77 26.28zM154.77 245.21a13.27 13.27 0 0 0 10.54-5.21 13.25 13.25 0 0 0 21.09 0 13.25 13.25 0 0 0 21.09 0 13.25 13.25 0 0 0 21.09 0 13.29 13.29 0 1 0 14.85-20.65 13.25 13.25 0 0 0-7-19.5 13.25 13.25 0 0 0-7-19.5 13.25 13.25 0 0 0-7-19.5 13.25 13.25 0 0 0-7-19.5 13.25 13.25 0 0 0-7-19.5 13.3 13.3 0 1 0-22.67 0 13.25 13.25 0 0 0-7 19.5 13.25 13.25 0 0 0-7 19.5 13.25 13.25 0 0 0-7 19.5 13.25 13.25 0 0 0-7 19.5 13.25 13.25 0 0 0-7 19.5 13.29 13.29 0 0 0 4.31 25.88zm0-20.6h.44l2.2-6.4a7.29 7.29 0 0 1 4.39-13.12h.12l2.26-6.58a7.29 7.29 0 0 1 4.43-12.88l2.34-6.81a7.29 7.29 0 0 1 4.36-12.67l2.42-7a7.29 7.29 0 0 1 4.29-12.52l2.52-7.35a7.28 7.28 0 0 1 4.16-12.1l2.63-7.66a7.31 7.31 0 1 1 11.06.22l2.46 7.38a7.29 7.29 0 0 1 4.17 12.59l2.3 6.93a7.29 7.29 0 0 1 4.33 13l2.18 6.55h.19a7.3 7.3 0 0 1 4.17 13.29l2.07 6.16a7.29 7.29 0 0 1 4.5 13.53l2 6a7.29 7.29 0 0 1 4.56 13.7l2 5.9a7.3 7.3 0 1 1-5.21 9.07h-7a7.29 7.29 0 0 1-14 0h-7.09a7.29 7.29 0 0 1-14 0h-7a7.29 7.29 0 0 1-14 0h-7.15a7.3 7.3 0 1 1-7-9.3zM44.65 370.84a27.79 27.79 0 0 0-27.63 24.79h3a24.75 24.75 0 0 1 49.13 0h3a27.79 27.79 0 0 0-27.5-24.79z"/><path d="M44.65 379.41a19.2 19.2 0 0 0-18.92 16.22h6.1a13.17 13.17 0 0 1 25.65 0h6.1a19.2 19.2 0 0 0-18.93-16.22z"/><path d="M109.44 322.1c.91-1.76 1.68-3.63 2.45-5.48 2.33-5.64 4.73-11.47 10.93-14.94l6-3.37-6.57-2.1c-20.87-6.68-36.79-3.57-47.39 9.22-4.18-10-11.38-13.28-11.7-13.43l-1-.46-1.09.35c-.1 0-9.27 2.88-17.17.31l-2.12 5.61c8 2.7 16.6 1 19.82.17a21.69 21.69 0 0 1 8.32 11.18c3.1 8.84 3.89 25.13-9.9 53.14a39.09 39.09 0 0 0-9.64-2.68c.31-.54.63-1.11.94-1.72a37.21 37.21 0 0 0 2.7-7.33c.35-1.36.67-2.77.9-4.2s.44-2.89.6-4.34a94 94 0 0 0 .17-15.92c-.3-4.31-.76-7.14-.76-7.14s.08 2.87-.18 7.14a92.06 92.06 0 0 1-2.19 15.41c-.33 1.36-.69 2.71-1.11 4s-.86 2.56-1.34 3.75a32.53 32.53 0 0 1-3.17 6.07 20.74 20.74 0 0 1-1.6 2.09 9.28 9.28 0 0 1-.64.71 9.3 9.3 0 0 1-.64-.71 20.6 20.6 0 0 1-1.6-2.09 32.56 32.56 0 0 1-3.17-6.07c-.48-1.19-.94-2.44-1.34-3.75s-.77-2.65-1.11-4a92.11 92.11 0 0 1-2.19-15.41c-.27-4.27-.18-7.14-.18-7.14s-.46 2.83-.76 7.14a94 94 0 0 0 .14 15.89c.16 1.45.35 2.91.6 4.34s.55 2.84.9 4.2a37.15 37.15 0 0 0 2.67 7.36c.31.61.63 1.18.94 1.72a39.07 39.07 0 0 0-8.14 2.09l-1.63-3.14a131.21 131.21 0 0 1-5.86-12.14l-3 8c1.11 2.27 2.34 4.63 3.55 7l1.51 2.89a39.7 39.7 0 0 0-13.5 12.48l-5.67 15.01a2.83 2.83 0 0 0 2.64 3.82h2.54a33.39 33.39 0 0 1 60.69-16 33.19 33.19 0 0 1 5.84 16h6a39.11 39.11 0 0 0-3-12.27 17.77 17.77 0 0 0 1.86-.19c1-.14 2-.33 3-.56a31.83 31.83 0 0 0 3.08-.87c1-.35 2-.73 3.06-1.1 2-.82 3.94-1.75 5.71-2.68s3.37-1.88 4.71-2.72c1.12-.69 2-1.3 2.78-1.79l.16-.45c-.84.36-2 .86-3.36 1.4s-3.18 1.21-5 1.81a58 58 0 0 1-5.85 1.56c-1 .18-2 .4-3 .51s-2 .22-2.87.28-1.81 0-2.65 0a21.09 21.09 0 0 1-2.3-.22l-1-.15c-.3-.06-.58-.14-.85-.2.07-.3.15-.62.27-1a21.4 21.4 0 0 1 .91-2.44 30.44 30.44 0 0 1 1.43-2.83 27.43 27.43 0 0 1 2-3c.77-1 1.55-2.08 2.43-3.11s1.81-2 2.77-3a90.25 90.25 0 0 1 11.73-10c3.44-2.48 5.88-3.93 5.88-3.93s-2.61 1.11-6.38 3.13a92.13 92.13 0 0 0-13.24 8.56c-1.13.9-2.26 1.83-3.32 2.8s-2.09 2-3 3-1.83 2-2.62 3.08a35.43 35.43 0 0 0-2.09 3l-.49.85a39.73 39.73 0 0 0-7.76-7c18.32-29 32.65-36.62 41.53-37.86a16.75 16.75 0 0 1 11.77 2.44l2-5.77a22.85 22.85 0 0 0-12.79-2.81zm-30.72 18.24a120.56 120.56 0 0 1 5.61-13.79 72.6 72.6 0 0 1 4.42-7.86c.39-.6.78-1.19 1.19-1.75s.8-1.11 1.21-1.63.81-1 1.22-1.49.81-.92 1.21-1.33.78-.82 1.17-1.17.74-.71 1.11-1 .7-.59 1-.83l.92-.65a15.29 15.29 0 0 1 1.34-.84l.48-.28-.51.22a15.4 15.4 0 0 0-1.44.67l-1 .54c-.36.21-.73.46-1.14.72s-.82.56-1.26.88l-1.34 1a15.05 15.05 0 0 0-1.4 1.22c-.46.45-1 .88-1.43 1.37s-1 1-1.44 1.52-1 1.08-1.44 1.65a75 75 0 0 0-5.5 7.51c-2 3-3.71 6.12-5.24 9q2.39-12 .54-21.54l.47-.66c3.08-4.49 12-17.53 37.22-11.59-4.34 4.26-6.52 9.55-8.36 14-1.94 4.7-3.5 8.48-6.71 10.19q-10.26 4.37-20.91 15.91zM105.13 280.7c-3.22 0-3.22 5 0 5s3.22-5 0-5zM87.8 278.81c-3.22 0-3.22 5 0 5s3.22-5 0-5zM121.34 278.81c-3.22 0-3.22 5 0 5s3.23-5 0-5zM98.13 176.86c3.22 0 3.22-5 0-5s-3.22 5 0 5zM84.8 206.82c-3.22 0-3.22 5 0 5s3.22-5 0-5zM135.82 269.46c-3.22 0-3.22 5 0 5s3.2-5 0-5zM145.29 259c3.22 0 3.22-5 0-5s-3.22 5 0 5zM96.02 205.51a10.552 10.552 0 0 0 8.47-19.33c-6.34-2.78-21.36-1.6-23.06-1.46l-5.51.47 3.39 4.36c1.08 1.35 10.4 13.19 16.71 15.96zm6.06-13.88a4.56 4.56 0 0 1-3.62 8.37c-2.67-1.17-7-5.54-10.62-9.62 5.43-.12 11.61.13 14.27 1.25zM154.8 276.17a11.48 11.48 0 0 0-9.7 20.8c4.29 2 12.31 2.42 18.28 2.42 3.72 0 6.65-.16 7.37-.21l5.52-.34-3.25-4.44c-1.17-1.52-11.26-14.99-18.22-18.23zm-7.16 15.36a5.474 5.474 0 1 1 4.63-9.92c3.36 1.57 8.54 7.25 12.27 11.77-5.87 0-13.56-.28-16.9-1.85zM164.02 137.41a10.48 10.48 0 0 0 6.57-4.69c3.67-5.87 4.68-20.91 4.79-22.6l.34-5.52-4.81 2.72c-1.48.84-14.54 8.34-18.21 14.21a10.55 10.55 0 0 0 11.32 15.88zm-6.24-12.69c1.54-2.47 6.5-6.16 11.06-9.11-.65 5.39-1.79 11.46-3.34 13.93a4.55 4.55 0 1 1-7.72-4.82zM135.26 105.3l2-1.09-.53-2.25c-.17-.73-4.28-17.9-10.5-25.83l-1 .79-2 5.42c3.43 5.85 6.07 14.81 7.17 18.88a93.92 93.92 0 0 0-21.56 19.18l-9.61 25.43.38.18c13.28-28.47 35.41-40.59 35.65-40.71zM74.69 279.53l3.52-2.21-3.19-2.69c-10.33-8.54-13.54-27.85-9.41-38.77l-.4-.15-6.87 18.16c1.12 8.13 4.29 16.36 9.68 22.33-4.32 2-12 4.54-19.08 2.5l-2.13 5.63a25.76 25.76 0 0 0 7.66 1.13c10.55.04 19.72-5.62 20.22-5.93z"/><path d="M57.61 274.82c3.22 0 3.22-5 0-5s-3.22 5 0 5zM123.19 100.82c3.22 0 3.22-5 0-5s-3.17 5 0 5zM290.13 285.7c3.22 0 3.22-5 0-5s-3.22 5 0 5zM307.46 283.81c3.22 0 3.22-5 0-5s-3.22 5 0 5zM297.13 176.86c3.22 0 3.22-5 0-5s-3.22 5 0 5zM310.46 206.82c-3.22 0-3.22 5 0 5s3.23-5 0-5zM259.44 269.46c-3.22 0-3.22 5 0 5s3.23-5 0-5zM250.02 259c3.22 0 3.22-5 0-5s-3.28 5 0 5zM290.74 186.18a10.552 10.552 0 0 0 8.47 19.33c6.34-2.78 15.66-14.62 16.71-16l3.39-4.36-5.51-.47c-1.69-.05-16.72-1.28-23.06 1.5zM296.8 200a4.552 4.552 0 0 1-3.65-8.34c2.67-1.17 8.84-1.41 14.27-1.28-3.58 4.08-8 8.45-10.62 9.62zM224.69 132.72a10.48 10.48 0 0 0 6.57 4.69 10.56 10.56 0 0 0 11.32-15.88c-3.67-5.87-16.74-13.37-18.21-14.21l-4.81-2.69.34 5.52c.12 1.66 1.12 16.7 4.79 22.57zm12.81-8a4.553 4.553 0 1 1-7.72 4.83c-1.54-2.47-2.68-8.54-3.34-13.94 4.54 2.94 9.54 6.63 11.06 9.1zM257.92 104.18l2.08 1.11c.22.12 22.38 12.24 35.67 40.7h.09l-9.74-26.1a93.62 93.62 0 0 0-21.1-18.65c1.16-4 3.86-12.65 7.16-18.62l-2.61-7c-6.16 8-10.77 25.52-11 26.26zM320.25 274.63l-3.2 2.65 3.52 2.21c.5.31 9.69 6 20.21 6a26.07 26.07 0 0 0 6.83-.88l-2.12-5.66c-6.85 1.62-14.1-.84-18.26-2.72 5-5.65 8.11-13.33 9.36-21.08L329.42 236c4.24 11.17 1.21 30.09-9.17 38.63z"/><path d="M337.65 274.82c3.22 0 3.22-5 0-5s-3.22 5 0 5zM272.07 100.82c3.22 0 3.22-5 0-5s-3.23 5 0 5zM349.02 370.84a27.79 27.79 0 0 0-27.6 24.79h3a24.75 24.75 0 0 1 49.13 0h3a27.79 27.79 0 0 0-27.53-24.79z"/><path d="M349.02 379.41a19.2 19.2 0 0 0-19 16.22h6.1a13.17 13.17 0 0 1 25.65 0h6.1a19.2 19.2 0 0 0-18.85-16.22z"/><path d="M284.89 328a27.12 27.12 0 0 1 6.32 1.82 13.74 13.74 0 0 0 1.37.64c8.75 4.1 20.37 13.9 34.13 35.65a39.72 39.72 0 0 0-7.76 7c-.16-.28-.31-.56-.49-.85a35.43 35.43 0 0 0-2.09-3c-.8-1-1.67-2.06-2.62-3.08s-2-2-3-3a37.74 37.74 0 0 0-3.32-2.8 92.13 92.13 0 0 0-13.24-8.56c-3.77-2-6.38-3.13-6.38-3.13s2.45 1.45 5.88 3.93a90.22 90.22 0 0 1 11.73 10c1 1 1.9 2 2.77 3s1.69 2.08 2.43 3.11 1.39 2.06 2 3a30.45 30.45 0 0 1 1.36 2.84 21.41 21.41 0 0 1 .91 2.44 7.42 7.42 0 0 1 .27 1c-.27.06-.55.15-.85.2l-1 .15a21.12 21.12 0 0 1-2.3.22h-2.65a19.21 19.21 0 0 1-2.87-.28c-1-.15-2-.33-3-.51-2-.43-4-1-5.85-1.56s-3.57-1.23-5-1.81-2.66-1.1-3.51-1.47l-1.32-.59 1.2.81c.76.51 1.86 1.25 3.21 2.08s3 1.78 4.71 2.72a61.76 61.76 0 0 0 5.71 2.68c1 .38 2 .8 3.06 1.1s2.06.62 3.08.87a29.74 29.74 0 0 0 3 .56c.65.07 1.26.14 1.86.19a39.11 39.11 0 0 0-3 12.2h6a33.19 33.19 0 0 1 5.84-16 33.39 33.39 0 0 1 60.69 16h2.85a2.83 2.83 0 0 0 2.65-3.81L382.49 378a39.69 39.69 0 0 0-14.28-13.69l1.5-2.88c1.3-2.49 2.62-5 3.8-7.45l-2.94-7.86h-.14a123.48 123.48 0 0 1-6 12.58l-1.62 3.12a39 39 0 0 0-8.13-2.09c.32-.54.63-1.11.94-1.72a37.15 37.15 0 0 0 2.69-7.33c.35-1.36.67-2.77.9-4.2s.44-2.89.6-4.34a93.92 93.92 0 0 0 .17-15.92c-.3-4.31-.76-7.14-.76-7.14s.08 2.87-.18 7.14a92.11 92.11 0 0 1-2.19 15.41c-.34 1.36-.69 2.71-1.11 4s-.86 2.56-1.34 3.75a32.5 32.5 0 0 1-3.17 6.07 20.67 20.67 0 0 1-1.6 2.09 9.28 9.28 0 0 1-.64.71 9.3 9.3 0 0 1-.64-.71 20.74 20.74 0 0 1-1.6-2.09 32.53 32.53 0 0 1-3.17-6.07c-.48-1.19-.94-2.44-1.34-3.75s-.77-2.65-1.11-4a92.06 92.06 0 0 1-2.19-15.41c-.26-4.27-.18-7.14-.18-7.14s-.46 2.83-.76 7.14a94 94 0 0 0 .17 15.92c.16 1.45.35 2.91.6 4.34s.55 2.84.9 4.2a37.18 37.18 0 0 0 2.69 7.33c.31.61.63 1.18.94 1.72a39.08 39.08 0 0 0-9.64 2.69c-13.71-27.82-13-44.11-10-52.91 2.43-7 6.61-10.29 8.4-11.42 3.29.85 12.25 2.63 20.41-.37l-2.1-5.61c-8 2.93-17.67-.07-17.77-.1l-1.09-.35-1 .47c-.32.14-7.52 3.46-11.7 13.43-10.6-12.79-26.52-15.9-47.39-9.22l-6.57 2.1 6 3.37c6.2 3.47 8.6 9.3 10.93 14.94.73 1.77 1.47 3.56 2.33 5.26a23.46 23.46 0 0 0-14.27 3l2 5.88c.55-.57 5.18-4.09 13.05-2.89zm-6-27.74c9.84-2.45 26.48-4.1 37.28 11.64l.47.66c-1.24 6.35-1 13.54.54 21.54-1.53-2.92-3.29-6-5.24-9a75 75 0 0 0-5.5-7.51c-.48-.57-1-1.12-1.44-1.65s-1-1-1.44-1.52-1-.94-1.43-1.37-.94-.84-1.4-1.22a12.23 12.23 0 0 0-1.34-1c-.44-.27-.84-.63-1.26-.88s-.78-.51-1.14-.72l-1-.54a15.46 15.46 0 0 0-1.44-.67l-.51-.22.48.28a15.29 15.29 0 0 1 1.34.83l.92.65c.33.25.66.54 1 .83s.73.64 1.11 1 .78.74 1.17 1.17.81.85 1.21 1.33l1.22 1.49c.4.49.82 1.06 1.21 1.63s.8 1.15 1.19 1.75a72.59 72.59 0 0 1 4.42 7.86 120.48 120.48 0 0 1 5.62 13.83q-10.77-11.67-21.26-16c-3-1.78-4.51-5.46-6.38-10s-4-9.92-8.42-14.19zM272.28 283.81a2.5 2.5 0 0 1 1.63 0c3.22 0 3.22-5 0-5a2.5 2.5 0 0 1-1.63 0c-3.21 0-3.26 5 0 5zM238.83 276.17c-7 3.24-17 16.71-18.18 18.23l-3.29 4.44 5.52.34c.73 0 3.65.21 7.37.21 6 0 14-.42 18.27-2.42a11.48 11.48 0 0 0-9.7-20.8zm10 12.27a5.44 5.44 0 0 1-2.85 3.09c-3.36 1.57-11 1.89-16.9 1.84 3.73-4.52 8.91-10.2 12.27-11.77a5.47 5.47 0 0 1 7.46 6.83zM140.14 71.5c.69-.09 1.39-.22 2.08-.36-6.55 15.17-2 24.32-1.78 24.75l.73 1.42 1.58.19a26.92 26.92 0 0 0 2.93.14 37.28 37.28 0 0 0 17.76-4.41l-2 2.9c-.93 1.2-1.85 2.45-2.87 3.63a87.46 87.46 0 0 1-6.6 7.15 144.94 144.94 0 0 1-16.45 13.47c-3 2.22-6.16 4.5-9.26 7-1.5 1.24-3 2.52-4.46 3.9l-.64.58c-.43.38-1 1-1.83 1.75a36.6 36.6 0 0 0-5.85 7.72 34.46 34.46 0 0 0-2.76 6.39 38.41 38.41 0 0 0-1.56 8 58.53 58.53 0 0 0 1.86 18.74 157.63 157.63 0 0 0 6.79 20.54c2.77 7.07 5.94 14.37 8.66 22a94.07 94.07 0 0 1 3.4 11.62c.21 1 .39 2 .55 3l.2 1.43.08.8v.73a27.82 27.82 0 0 1-.16 5.82 28.64 28.64 0 0 1-3.92 11 29.76 29.76 0 0 1-8 8.7 24.22 24.22 0 0 1-10.76 4.4h-.67l-.73.07c-.49.06-1 0-1.46.06a11.69 11.69 0 0 1-1.45 0 13.06 13.06 0 0 1-1.44-.11 22.88 22.88 0 0 1-5.58-1.31 24.48 24.48 0 0 1-14.68-16.07 20.73 20.73 0 0 1-.36-10.47 19.34 19.34 0 0 1 4.61-8.8c4.37-4.77 11.19-6.47 16.32-4.72a12.58 12.58 0 0 1 6.58 3.76 12.09 12.09 0 0 1 2.88 6.5 13.52 13.52 0 0 1-.74 6.54 10.71 10.71 0 0 1-1.31 2.4c-4.85 5.71-13.47-.31-10.15-7 .9-1.81-5.76-3-7.39-.65s-.53 6.36 2.51 9.12l.32.27a12.33 12.33 0 0 0 2.78 1.79 11.39 11.39 0 0 0 10.71.31l.19-.09c3.86-1.89 7-6.86 7-12.91a16.57 16.57 0 0 0-2.79-9.31 17.21 17.21 0 0 0-8.82-6.62 13.82 13.82 0 0 0-1.4-.37c-.51-.11-1-.2-1.47-.26a24.58 24.58 0 0 0-3-.18 22.78 22.78 0 0 0-16.64 7.32 25.32 25.32 0 0 0-6.06 11.53 26.74 26.74 0 0 0 .4 13.49 30.79 30.79 0 0 0 6.69 12 29.64 29.64 0 0 0 11.67 8 28.9 28.9 0 0 0 7 1.66 18.06 18.06 0 0 0 1.81.14c.6 0 1.21.06 1.81 0s1.21 0 1.81-.08l.9-.08h1a27.14 27.14 0 0 0 3.56-.73 28.76 28.76 0 0 0 3.46-1.19 33.18 33.18 0 0 0 6.29-3.51 35.75 35.75 0 0 0 9.69-10.47 34.63 34.63 0 0 0 4.74-13.37 33.85 33.85 0 0 0 .19-7.06v-.87l-.08-.8-.24-1.74c-.18-1.12-.38-2.22-.61-3.3A99.87 99.87 0 0 0 132.1 215c-1.44-4-3-7.85-4.47-11.58a32 32 0 0 0 12.3 2.33 30.63 30.63 0 0 0 4.71-.33l2.16-.36.32-2.16c.1-.68 1.94-14-4.59-22.55A23.65 23.65 0 0 0 158.6 166c.18-.5.4-1.08.53-1.51l.19-.65.12-.41.09-.38a23.88 23.88 0 0 0 .53-3 26.2 26.2 0 0 0 0-5.92 24.13 24.13 0 0 0-3.89-10.7 17 17 0 0 0-4-4.17 14.08 14.08 0 0 0-5.28-2.42c-.48-.1-.93-.18-1.43-.24l-.78-.06h-2c-.41 0-.81.06-1.22.1a28.2 28.2 0 0 0-4.73.93A15.63 15.63 0 0 0 125.87 150a11.63 11.63 0 0 0 1 6.6 9.82 9.82 0 0 0 3.37 4 10.46 10.46 0 0 0 1.14.65 9.34 9.34 0 0 0 4.39 1.17h1.38c8.72 0 12.34-7.47 9.49-11.61-1.63-2.38-8.29-1.16-7.39.65 3.36 6.76-5.34 11.9-9.37 5.86a7.48 7.48 0 0 1-.57-1.61 9.64 9.64 0 0 1 3.6-9.41 12 12 0 0 1 2.63-1.61c1-.41 2-.85 3-1.26a14.76 14.76 0 0 1 3.52-.76c.31 0 .63-.06 1-.08h1.69a4.64 4.64 0 0 1 .79.13 9.43 9.43 0 0 1 5.62 4.13 18.19 18.19 0 0 1 2.88 8 18.49 18.49 0 0 1-1.06 9 17.73 17.73 0 0 1-5.59 7.51 18 18 0 0 1-9 3.66 23.86 23.86 0 0 1-10.28-1.16 31.89 31.89 0 0 1-5-2.13l-.52-.27-.64-.38-.32-.19-.23-.16-.44-.31a12.89 12.89 0 0 1-1.8-1.61 15.38 15.38 0 0 1-3.83-9.13c-.68-7 2.1-14.55 6.65-19.88 4.86-5.75 11-10.12 17.12-14.6a150.75 150.75 0 0 0 17.09-14 103.76 103.76 0 0 0 12.88-15.32c1-1.63 1.84-3.23 2.66-4.81a24.15 24.15 0 0 0 11.29 8.86l1.56.56 1.31-1a18.42 18.42 0 0 1 21.59 0l1.44 1.12 1.66-.76a24.48 24.48 0 0 0 11.53-11.75 97.48 97.48 0 0 0 4.14 7.78 103.78 103.78 0 0 0 12.88 15.32 150.71 150.71 0 0 0 17.09 14c6.08 4.48 12.26 8.85 17.11 14.6 4.55 5.33 7.33 12.88 6.65 19.88a15.38 15.38 0 0 1-3.83 9.13 12.91 12.91 0 0 1-1.8 1.61l-.44.31-.23.16-.32.19-.64.38-.52.27a31.92 31.92 0 0 1-5 2.13 23.86 23.86 0 0 1-10.28 1.14 18 18 0 0 1-9-3.66 17.74 17.74 0 0 1-5.59-7.51 18.49 18.49 0 0 1-1.06-9 18.19 18.19 0 0 1 2.88-8 9.43 9.43 0 0 1 5.62-4.13c.26 0 .54-.1.79-.13h1.69a3.78 3.78 0 0 1 1 .08 14.76 14.76 0 0 1 3.52.76c1.08.41 2.07.85 3 1.26a12 12 0 0 1 2.63 1.61 9.64 9.64 0 0 1 3.58 9.33 7.45 7.45 0 0 1-.57 1.61c-4 6-12.73.9-9.37-5.86.9-1.81-5.76-3-7.39-.65-2.84 4.14.77 11.61 9.49 11.61h1.38a9.34 9.34 0 0 0 4.39-1.17 10.45 10.45 0 0 0 1.14-.65 9.82 9.82 0 0 0 3.37-4 11.63 11.63 0 0 0 1-6.6 15.63 15.63 0 0 0-10.85-12.36 28.19 28.19 0 0 0-4.73-.93c-.4 0-.81-.08-1.22-.1h-2l-.78.06a13.86 13.86 0 0 0-6.71 2.66 17 17 0 0 0-4 4.17 24.12 24.12 0 0 0-3.89 10.7 26.14 26.14 0 0 0 0 5.92 23.79 23.79 0 0 0 .53 3l.09.38.12.41.19.65c.13.44.35 1 .53 1.51a23.65 23.65 0 0 0 16.07 14.31c-6.53 8.51-4.69 21.87-4.59 22.55l.32 2.16 2.16.36a30.62 30.62 0 0 0 4.71.33 32 32 0 0 0 12.3-2.33c-1.51 3.73-3 7.58-4.47 11.58a99.93 99.93 0 0 0-3.64 12.39c-.23 1.08-.43 2.19-.61 3.3l-.24 1.74-.08.8v.84a33.82 33.82 0 0 0 .19 7.06 34.65 34.65 0 0 0 4.74 13.37 35.75 35.75 0 0 0 9.69 10.47 33.18 33.18 0 0 0 6.32 3.53 28.79 28.79 0 0 0 3.46 1.19 27.18 27.18 0 0 0 3.56.73h1l.9.08c.6.07 1.21 0 1.81.08s1.21 0 1.81 0a18 18 0 0 0 1.81-.14 28.89 28.89 0 0 0 7-1.66 29.65 29.65 0 0 0 11.67-8 30.79 30.79 0 0 0 6.69-12 26.74 26.74 0 0 0 .43-13.49 25.32 25.32 0 0 0-6.06-11.52 22.78 22.78 0 0 0-16.64-7.32 24.57 24.57 0 0 0-3 .18 13.64 13.64 0 0 0-1.47.26 13.81 13.81 0 0 0-1.4.37 17.21 17.21 0 0 0-8.82 6.62 16.57 16.57 0 0 0-2.79 9.31c0 6 3.19 11 7 12.91l.19.09a11.39 11.39 0 0 0 10.71-.31 12.33 12.33 0 0 0 2.78-1.79l.32-.27c3-2.77 4.2-6.66 2.51-9.12s-8.29-1.16-7.39.65c3.32 6.67-5.31 12.69-10.15 7a10.75 10.75 0 0 1-1.31-2.4 13.51 13.51 0 0 1-.74-6.54 12.08 12.08 0 0 1 2.88-6.5 12.58 12.58 0 0 1 6.58-3.76c5.12-1.74 12 0 16.32 4.72a19.33 19.33 0 0 1 4.61 8.8 20.73 20.73 0 0 1-.36 10.47 24.48 24.48 0 0 1-14.68 16.07 22.89 22.89 0 0 1-5.58 1.31 13.06 13.06 0 0 1-1.44.11 14 14 0 0 1-1.45 0c-.45 0-1 0-1.46-.06l-.73-.07h-.67a24.22 24.22 0 0 1-10.76-4.4 29.76 29.76 0 0 1-8-8.7 28.64 28.64 0 0 1-3.92-11 27.82 27.82 0 0 1-.16-5.82v-.73l.08-.8.2-1.43c.16-1 .34-2 .55-3a94.15 94.15 0 0 1 3.37-11.55c2.73-7.61 5.89-14.91 8.67-22a157.7 157.7 0 0 0 6.83-20.55 58.53 58.53 0 0 0 1.78-18.77 38.41 38.41 0 0 0-1.56-8 34.5 34.5 0 0 0-2.76-6.39 36.6 36.6 0 0 0-5.85-7.72c-.78-.8-1.4-1.37-1.83-1.75l-.64-.58c-1.45-1.38-3-2.66-4.46-3.9-3.1-2.51-6.23-4.78-9.26-7a144.89 144.89 0 0 1-16.45-13.47 87.38 87.38 0 0 1-6.6-7.15c-1-1.19-1.94-2.44-2.87-3.63l-2.54-3.67-.27-.42a47.44 47.44 0 0 0 19.89 5h1.83l.84-1.62c.22-.43 4.67-9.4-1.59-24.29.6.12 1.19.23 1.79.3a23.69 23.69 0 0 0 3 .2 20.4 20.4 0 0 0 10.24-2.53l-2.14-5.72a14.53 14.53 0 0 1-10.55 2.18c-7.92-1.12-20.77-8-37.25-34.32a35.17 35.17 0 0 0 6.08-5.65c.22.39.45.78.7 1.19a33.33 33.33 0 0 0 4.38 5.49c.88.9 1.81 1.8 2.8 2.65s2 1.68 3 2.48a84 84 0 0 0 12.09 7.52c3.51 1.75 5.89 2.75 5.89 2.75s-2.21-1.3-5.32-3.53a82 82 0 0 1-10.6-9c-.87-.9-1.72-1.81-2.5-2.74s-1.52-1.86-2.19-2.79a28.69 28.69 0 0 1-3.06-5.25 18.21 18.21 0 0 1-.8-2.17 4.58 4.58 0 0 1-.15-.55 13.76 13.76 0 0 1 1.36-.26 19.88 19.88 0 0 1 2.08-.22h2.39a18.38 18.38 0 0 1 2.61.22l2.71.41c1.82.36 3.64.81 5.33 1.32s3.26 1.05 4.6 1.56c.88.33 1.65.64 2.3.91l-.27-.72c-.48-.32-1-.66-1.62-1-1.22-.77-2.68-1.62-4.29-2.48a57 57 0 0 0-5.2-2.44c-.93-.34-1.84-.73-2.79-1s-1.88-.57-2.8-.8-1.85-.39-2.73-.53a18.1 18.1 0 0 0-2.25-.22A34.62 34.62 0 0 0 231.3 6h-6a28.89 28.89 0 0 1-57.46 0h-6a34.61 34.61 0 0 0 2.53 10.36l-1.49.17c-.88.14-1.8.31-2.73.53s-1.87.48-2.8.8-1.86.67-2.79 1c-1.83.75-3.59 1.59-5.2 2.44-1.43.77-2.74 1.53-3.88 2.23l-.5 1.26.49-.19c1.33-.51 2.91-1 4.6-1.56a38.09 38.09 0 0 1 5.33-1.32c.91-.15 1.82-.33 2.71-.41s1.77-.17 2.61-.22 1.64 0 2.39 0a19.89 19.89 0 0 1 2.08.22 11.42 11.42 0 0 1 1.36.26 2.06 2.06 0 0 1-.15.55 18.11 18.11 0 0 1-.8 2.17 28.69 28.69 0 0 1-3.06 5.25c-.67.92-1.39 1.87-2.19 2.79s-1.63 1.84-2.5 2.74a82.07 82.07 0 0 1-10.6 9c-3.11 2.23-5.32 3.53-5.32 3.53s2.38-1 5.81-2.73a84 84 0 0 0 12.09-7.52c1-.8 2.07-1.62 3-2.48s1.92-1.75 2.8-2.65a33.33 33.33 0 0 0 4.39-5.45l.38-.65a35.14 35.14 0 0 0 6.16 5.5c-16.37 26-29.12 32.83-37 33.94a15.11 15.11 0 0 1-9.44-1.49l-2.1 5.56a20.61 20.61 0 0 0 9.08 2 23.67 23.67 0 0 0 3.04-.13zm-13.88 108.06a31.74 31.74 0 0 0 8.21 1.56c6.79 3.83 7.13 14 6.9 18.57-4.09.19-12.74-.26-17.92-6.65l-.09-.22c-1.55-3.93-3-7.74-4.17-11.43l.24.29c1 1.2 2.13 2.44 3.32 3.61.57.6 1.22 1.14 1.82 1.7s1.26 1 1.86 1.52l1.85 1.28 1.74 1 1.54.69a8.16 8.16 0 0 0 1.22.42l1.07.32-1-.5a7.88 7.88 0 0 1-1.11-.62l-1.36-.92-1.48-1.24-1.53-1.51c-.49-.57-1-1.13-1.5-1.74a20.36 20.36 0 0 1-1.43-1.89c-.92-1.29-1.77-2.62-2.51-3.91-.58-1-1.08-1.94-1.52-2.81a37.84 37.84 0 0 0 5.85 2.48zm127.64 20.12c-.23-4.6.11-14.73 6.9-18.56a31.74 31.74 0 0 0 8.21-1.56 37.57 37.57 0 0 0 5.33-2.21c-.41.8-.87 1.67-1.4 2.56-.74 1.29-1.59 2.62-2.51 3.91-.44.66-1 1.26-1.43 1.89a19.09 19.09 0 0 1-1.5 1.74l-1.48 1.55-1.48 1.24-1.36.92a7.88 7.88 0 0 1-1.11.62l-1 .5 1.07-.32a8.16 8.16 0 0 0 1.22-.42l1.54-.69 1.74-1 1.85-1.28c.6-.49 1.24-1 1.86-1.52a24.12 24.12 0 0 0 1.82-1.7 48.06 48.06 0 0 0 3.32-3.61l.87-1c-1.26 3.93-2.77 8-4.43 12.19l-.09.22c-5.14 6.34-13.82 6.82-17.91 6.63zm-44.47-106a24.34 24.34 0 0 0-25.75.08 19.24 19.24 0 0 1-9.35-10.41c-3-7.62-3.84-22.12 9-48a34.57 34.57 0 0 0 8 2.23c-.32.54-.63 1.11-.94 1.73a33.36 33.36 0 0 0-2.37 6.56c-.31 1.22-.58 2.49-.78 3.78s-.38 2.59-.51 3.9a84 84 0 0 0 0 14.24c.3 3.85.72 6.38.72 6.38s0-2.56.21-6.38A82 82 0 0 1 189.73 54c.31-1.21.63-2.41 1-3.57s.78-2.28 1.22-3.33a28.73 28.73 0 0 1 2.86-5.36 18.08 18.08 0 0 1 1.43-1.74 3.89 3.89 0 0 1 .34-.36l.34.36a18 18 0 0 1 1.43 1.82 28.7 28.7 0 0 1 2.86 5.36c.44 1.05.86 2.17 1.22 3.33s.71 2.36 1 3.57a82 82 0 0 1 2.07 13.74c.27 3.82.21 6.38.21 6.38s.43-2.53.73-6.38a84 84 0 0 0 0-14.24c-.13-1.3-.29-2.61-.51-3.9s-.48-2.55-.78-3.78a33.36 33.36 0 0 0-2.37-6.61c-.31-.62-.63-1.19-.94-1.73a34.56 34.56 0 0 0 6.67-1.69c12.41 25.29 11.89 39.71 9.2 47.39a19.28 19.28 0 0 1-8.28 10.37zm34.44-25.31c6.47 11.54 5.76 19.37 4.94 22.66-4.81-.45-16.81-2.49-24.1-11.55 1.17-7.27.3-15.81-2.6-25.56 2 2.46 4.12 5.3 6.2 8.22.76 1 1.45 2.1 2.17 3.13s1.36 2.09 2 3.09l1.8 3 1.51 2.64c.46.84.82 1.64 1.17 2.34s.61 1.33.83 1.85l.68 1.63-.45-1.7c-.14-.55-.3-1.22-.56-2s-.5-1.61-.83-2.52l-1.1-3-1.37-3.23c-.51-1.1-1-2.26-1.58-3.41s-1.12-2.33-1.73-3.48c-.68-1.33-1.38-2.65-2.08-3.94a57.64 57.64 0 0 0 15.09 11.74zm-79.08-11.4c-.94 1.78-1.89 3.66-2.8 5.56l-1.48 3.21-1.34 3.15c-.4 1-.81 2-1.16 3l-1 2.7-.7 2.31c-.22.68-.34 1.3-.47 1.8l-.38 1.57.63-1.49c.21-.47.42-1 .74-1.69l1-2.15 1.34-2.48c.49-.87 1-1.77 1.59-2.71l1.79-2.84 1.99-2.91c1.12-1.62 2.28-3.21 3.41-4.71q-2.92 13-.37 22.73c-7.23 8.9-18.07 9.7-22.34 9.63-.83-3.22-1.74-11.48 5.22-23.55a58 58 0 0 0 14.33-11.18z"/><path d="M196.55 28a25 25 0 0 0 24.76-22h-3a21.94 21.94 0 0 1-43.47 0h-3a25 25 0 0 0 24.71 22z"/><path d="M196.55 20.63A17.65 17.65 0 0 0 213.91 6h-6.13a11.62 11.62 0 0 1-22.46 0h-6.13a17.65 17.65 0 0 0 17.36 14.63z"/><path d="M393.31 389.63l-64.53-172.52a35.67 35.67 0 0 1 5.82-35.4l3.47-4.23-5.34-.93A37 37 0 0 1 304.81 153L250.02 6.29a9.72 9.72 0 0 0-9.1-6.29h-86.3a9.73 9.73 0 0 0-9 6.25L90.5 151.9a39 39 0 0 1-29.33 24.66l-5.43.94 3.54 4.21a36.94 36.94 0 0 1 6 36.8L.59 389.63a8.83 8.83 0 0 0 8.26 12h85.93a9.69 9.69 0 0 0 9.13-6.46L130.74 319a3.68 3.68 0 0 1 3.47-2.46h123.81a3.68 3.68 0 0 1 3.48 2.5l25.82 76a9.68 9.68 0 0 0 9.16 6.57h88.54a8.83 8.83 0 0 0 8.27-11.92zm-100.29 3.47l-21.15-62.29-2-5.88-2.67-7.86a9.68 9.68 0 0 0-9.18-6.57H134.2a9.69 9.69 0 0 0-9.18 6.5l-2.77 7.86-2 5.77L105.37 373l-.16.45-6.94 19.69a3.68 3.68 0 0 1-3.49 2.5H8.85a2.83 2.83 0 0 1-2.64-3.82l5.69-15.06 8.44-22.33 3-8 18.39-48.63 2.12-5.61 3-7.81 2.17-5.63 9.39-24.83 6.87-18.16 5.68-15.13a43.09 43.09 0 0 0-4.34-39.18A45.18 45.18 0 0 0 96.11 154l3.1-8.2 9.61-25.43 14.39-38.06 2-5.42 2.81-7.26 2.09-5.63 14.91-39.17.48-1.28 5.74-15.17a3.7 3.7 0 0 1 3.4-2.38h86.25a3.69 3.69 0 0 1 3.44 2.39l6.15 16.44.27.72 14.13 37.79 2.14 5.72 2.46 6.57 2.61 7 13.93 37.26 9.71 26.11 3.43 9.16a43.19 43.19 0 0 0 28.13 26.33 41.84 41.84 0 0 0-4.16 37.77L329.4 236l7.17 19.18 8.9 23.8 2.12 5.66 2.75 7.37 2.1 5.61 18.12 48.45 2.94 7.86 9 24 5.18 13.85a2.83 2.83 0 0 1-2.65 3.81h-88.6a3.68 3.68 0 0 1-3.41-2.49z"/><path d="M154.86 231.85a4.87 4.87 0 0 0 4 2.06h74.72a4.87 4.87 0 0 0 4.61-6.42l-.88-2.65-2-5.9-4.56-13.7-2-6-4.47-13.61-2.08-6.25-4.42-13.28-2.17-6.47-4.31-13-2.28-6.93-4.17-12.53-2.46-7.38-1-2.85a4.81 4.81 0 0 0-4.58-3.29 4.82 4.82 0 0 0-4.6 3.27l-.91 2.65-2.63 7.66-4.16 12.1-2.56 7.3-4.24 12.37-2.42 7-4.27 12.82-2.37 6.81-4.44 12.91-2.26 6.58-4.51 13.12-2.2 6.4-1 2.8a4.87 4.87 0 0 0 .62 4.41zm8.43-12.29l4.08-11.86 2.61-7.58 4.19-12.18 2.5-7.27 4.35-12.47 2.4-7 4.38-12.73 2.32-6.75 1.19-3.47 5.51-16 .06-.16.06.17 2.25 6.77 4.23 12.7 2.39 7.19 4.07 12.23 2.57 7.71 3.88 11.66 2.69 8.31 3.65 11 3 9.1 3.35 10.15 3 8.86h-71.6l.14-.42z"/></svg>