<svg id="Google_alt" data-name="Google alt" xmlns="http://www.w3.org/2000/svg" width="420" height="420" viewBox="0 0 420 420"><defs><style>.cls-1{fill:#fff}</style></defs><title>instagram</title><path class="cls-1" d="M342.82 100.28A24.3 24.3 0 1 1 318.51 76a24.3 24.3 0 0 1 24.31 24.28zM420 210v.31l-1.38 88.11a121.58 121.58 0 0 1-120.2 120.2L210 420h-.31l-88.11-1.38a121.59 121.59 0 0 1-120.2-120.2L0 210v-.31l1.38-88.11A121.59 121.59 0 0 1 121.59 1.39L210 0h.31l88.11 1.38a121.58 121.58 0 0 1 120.2 120.2zm-39.11 0l-1.37-87.8a82.65 82.65 0 0 0-81.72-81.72L210 39.11l-87.8 1.37a82.66 82.66 0 0 0-81.72 81.72L39.11 210l1.37 87.8a82.65 82.65 0 0 0 81.72 81.72l87.8 1.37 87.8-1.37a82.65 82.65 0 0 0 81.71-81.72zm-63 0A107.84 107.84 0 1 1 210 102.16 108 108 0 0 1 317.84 210zm-39.11 0A68.73 68.73 0 1 0 210 278.73 68.81 68.81 0 0 0 278.73 210z"/></svg>