<svg id="Layer_1" data-name="Layer 1" xmlns="http://www.w3.org/2000/svg" width="189" height="39.02" viewBox="0 0 189 39.02"><defs><style>.cls-1{fill:#fff}</style></defs><title>social</title><path class="cls-1" d="M83.28 9.3A2.26 2.26 0 1 1 81 7.05a2.26 2.26 0 0 1 2.28 2.25zm7.17 10.18l-.13 8.18a11.28 11.28 0 0 1-11.16 11.18L71 39l-8.18-.13A11.28 11.28 0 0 1 51.6 27.69l-.13-8.21.13-8.18A11.28 11.28 0 0 1 62.75.12L71 0l8.2.14a11.28 11.28 0 0 1 11.12 11.13zm-3.63 0l-.13-8.15a7.67 7.67 0 0 0-7.58-7.58L71 3.62l-8.15.13a7.67 7.67 0 0 0-7.58 7.58l-.13 8.15.13 8.15a7.67 7.67 0 0 0 7.58 7.58l8.15.13 8.15-.13a7.67 7.67 0 0 0 7.58-7.58zm-5.85 0a10 10 0 1 1-10-10 10 10 0 0 1 10 10zm-3.63 0A6.38 6.38 0 1 0 71 25.86a6.39 6.39 0 0 0 6.38-6.38z" transform="translate(0 .02)"/><path class="cls-1" d="M19.78 0a20 20 0 0 0-6.32 38.9 1 1 0 0 0 1.37-.9v-3.49c-5.53 1.22-6.67-2.72-6.67-2.72a5.59 5.59 0 0 0-2.22-2.94c-1.79-1.22.14-1.22.14-1.22a4.31 4.31 0 0 1 3.08 2.08 4.16 4.16 0 0 0 5.63 1.71l.11-.06a4.39 4.39 0 0 1 1.26-2.66C11.71 28.2 7 26.48 7 18.87a7.3 7.3 0 0 1 2.12-5.31 7.18 7.18 0 0 1 .22-5.24s1.72-.57 5.45 2.08a19.86 19.86 0 0 1 10 0c3.8-2.58 5.45-2.08 5.45-2.08a7 7 0 0 1 .22 5.24 7.81 7.81 0 0 1 2.08 5.31c0 7.68-4.67 9.33-9.12 9.83a4.89 4.89 0 0 1 1.36 3.73v5.45a1 1 0 0 0 1.36.93A19.92 19.92 0 0 0 19.78 0z" transform="translate(0 .02)" id="Layer_1-2" data-name="Layer 1-2"/><g id="Layer_1-2-2" data-name="Layer 1-2-2"><path id="twitter" class="cls-1" d="M144.16 6.83a19.7 19.7 0 0 1-5.24 1.43 9.23 9.23 0 0 0 4-5.08 18.3 18.3 0 0 1-5.76 2.22 9 9 0 0 0-6.67-2.94 9.2 9.2 0 0 0-9.13 9.21 9.85 9.85 0 0 0 .24 2.14 26 26 0 0 1-18.81-9.6 9.1 9.1 0 0 0-1.27 4.6 9.29 9.29 0 0 0 4 7.7 8.94 8.94 0 0 1-4.13-1.19v.08a9.28 9.28 0 0 0 7.3 9 8.19 8.19 0 0 1-2.38.32 13 13 0 0 1-1.75-.16 9.21 9.21 0 0 0 8.6 6.47 18.25 18.25 0 0 1-11.35 4 19.46 19.46 0 0 1-2.14-.16 25.54 25.54 0 0 0 14 4.13c16.74 0 26-14 26-26.27v-1.22a14.42 14.42 0 0 0 4.49-4.68z" transform="translate(0 .02)"/></g><g id="black"><path class="cls-1" d="M160.49 38.1V14.34h-7.34V38.1zm0-32.17a3.78 3.78 0 0 0-7.57 0 3.6 3.6 0 0 0 3.72 3.74 3.62 3.62 0 0 0 3.85-3.75zm12 32.17V24.56a5.51 5.51 0 0 1 .27-2 4.41 4.41 0 0 1 4.13-2.95c2.92 0 4.74 1.65 4.74 4.91V38.1H189V24.2c0-7.44-4-10.91-9.27-10.91a8 8 0 0 0-7.31 4.08l.05-3.18h-7.38c.11 2.27 0 23.9 0 23.9z" transform="translate(0 .02)" id="linkedin"/></g></svg>