<svg id="Layer_1" data-name="Layer 1" xmlns="http://www.w3.org/2000/svg" width="56.1" height="46" viewBox="0 0 56.1 46"><defs><style>.cls-1{fill:#fff}</style></defs><title>twitter</title><g id="Layer_1-2" data-name="Layer 1"><path id="twitter" class="cls-1" d="M76.8 31.3a24.82 24.82 0 0 1-6.6 1.8 11.63 11.63 0 0 0 5.1-6.4 23.06 23.06 0 0 1-7.3 2.8 11.33 11.33 0 0 0-8.4-3.7 11.59 11.59 0 0 0-11.5 11.6 12.41 12.41 0 0 0 .3 2.7A32.8 32.8 0 0 1 24.7 28a11.47 11.47 0 0 0-1.6 5.8 11.71 11.71 0 0 0 5.1 9.7A11.26 11.26 0 0 1 23 42v.1a11.7 11.7 0 0 0 9.2 11.4 10.32 10.32 0 0 1-3 .4 16.35 16.35 0 0 1-2.2-.2 11.6 11.6 0 0 0 10.7 8.1 23 23 0 0 1-14.3 5 24.52 24.52 0 0 1-2.7-.2 32.18 32.18 0 0 0 17.6 5.2C59.4 71.8 71 54.1 71 38.7v-1.5a18.17 18.17 0 0 0 5.8-5.9z" transform="translate(-20.7 -25.8)"/></g></svg>