<svg id="Layer_1" xmlns="http://www.w3.org/2000/svg" viewBox="0 0 760 795"><style>.st0{fill:#2d2926}</style><title>logo/Logo outline 2018 black@2x</title><g id="logo_x2F_Logo-outline-2018-black"><g id="Green-Mark"><path id="Fill-11" class="st0" d="M641.6 641.7c6.7 3.9 15.3 1.6 19.3-5.3L725.1 524c4-7 1.6-16-5.2-19.9l-98.3-57.4-78.4 45.7v91.8l98.4 57.5zM511.2 474.1l110.4-64.4 8.1 4.7L736 476.5c22 12.9 29.6 41.2 16.9 63.5l-64.2 112.4c-12.7 22.3-41.1 30-63.2 17.1l-114.3-66.7V474.1z"/><path id="Fill-1" class="st0" d="M490.4 461.7v286.8h-16 16c0 25.7-20.6 46.5-46.2 46.5H315.8c-25.6 0-46.2-20.9-46.2-46.5V461.7L24 318.3C2 305.5-5.5 277.1 7.2 254.9l64.2-112.4c12.7-22.3 41.1-30 63.2-17.1L373 264.6c4.4 2.5 9.7 2.5 14.1 0l238.4-139.2c22.1-12.9 50.5-5.2 63.2 17.1l64.2 112.4c12.7 22.2 5.2 50.6-16.9 63.5L490.4 461.7zm-16 286.8h-16V443.3l7.9-4.6 253.5-148c6.8-4 9.2-13 5.2-20l-64.2-112.4c-3.9-6.9-12.5-9.2-19.3-5.3L403.2 292.3c-14.3 8.4-32 8.4-46.3 0L118.4 153.1c-6.7-3.9-15.4-1.6-19.3 5.3L34.9 270.7c-4 7-1.6 16 5.2 20l261.5 152.6v305.2c0 8.1 6.4 14.5 14.2 14.5h128.3c7.8 0 14.2-6.5 14.2-14.5h16.1z"/><path id="Fill-6" class="st0" d="M458.4 46.5c0-8.1-6.4-14.5-14.2-14.5H315.8V16v16c-7.8 0-14.2 6.5-14.2 14.5v176.6l71.3 41.6c4.4 2.5 9.7 2.5 14 0l71.3-41.6V46.5zM315.8 16V0h128.3c25.6 0 46.2 20.9 46.2 46.5v195l-7.9 4.6-79.3 46.3c-14.3 8.4-32 8.4-46.3 0l-87.2-50.9v-195c0-25.7 20.6-46.5 46.2-46.5v16z"/><path id="Fill-4" class="st0" d="M118.4 641.7l151.2-88.3v-91.8l-78.4-45.7-151 88.3c-6.8 4-9.2 13-5.2 19.9l64.2 112.4c3.8 6.8 12.5 9.2 19.2 5.2l8.1 13.8-8.1-13.8zm-47.1 10.6L7.2 540C-5.5 517.8 2 489.4 24 476.5l167.2-97.6 110.4 64.4v128.5l-167.1 97.5c-22.1 13-50.4 5.3-63.2-17z"/></g></g><path id="Combined-Shape_1_" class="st0" d="M540.3 559.2l-.1-69.1 59.9-34.5.1 69.2z"/></svg>